<svg width="295" height="199" viewBox="0 0 295 199" fill="none" xmlns="http://www.w3.org/2000/svg">
<g clip-path="url(#clip0_33_1856)">
<path opacity="0.3" d="M147.707 0V28.8341L98.9795 56.9881V28.0863L147.707 0Z" fill="url(#paint0_linear_33_1856)"/>
<path opacity="0.3" d="M147.708 0.407804L147.732 28.5176L196.46 56.6715L196.436 28.4941L147.708 0.407804Z" fill="url(#paint1_radial_33_1856)"/>
<path d="M196.435 56.6479L147.707 84.8019L98.9795 56.6479L147.707 28.494L196.435 56.6479Z" fill="url(#paint2_radial_33_1856)"/>
<path d="M123.344 57.1581V42.163L147.708 28.0861L172.072 42.163V57.1581L147.708 71.235L123.344 57.1581Z" fill="url(#paint3_linear_33_1856)"/>
<path opacity="0.8" d="M196.435 28.0863L147.707 56.2402L98.9795 28.0863L147.707 0L196.435 28.0863Z" fill="url(#paint4_radial_33_1856)"/>
<path opacity="0.8" d="M98.9795 28.0861V56.6459L147.707 84.7322V56.24L98.9795 28.0861Z" fill="url(#paint5_linear_33_1856)"/>
<path opacity="0.8" d="M196.436 28.0861V56.6459L147.708 84.7322V56.24L196.436 28.0861Z" fill="url(#paint6_linear_33_1856)"/>
<path d="M172.072 42.163L147.708 56.24L123.344 42.163L147.708 28.0861L172.072 42.163Z" fill="#8B78FF"/>
<path opacity="0.3" d="M197.197 28.494V57.3282L148.469 85.4821V56.5803L197.197 28.494Z" fill="url(#paint7_linear_33_1856)"/>
<path opacity="0.3" d="M197.197 28.9018L197.221 57.0116L245.949 85.1655L245.925 56.9881L197.197 28.9018Z" fill="url(#paint8_radial_33_1856)"/>
<path d="M245.925 85.142L197.197 113.296L148.469 85.142L197.197 56.988L245.925 85.142Z" fill="url(#paint9_radial_33_1856)"/>
<path d="M172.833 85.6521V70.657L197.197 56.5801L221.561 70.657V85.6521L197.197 99.729L172.833 85.6521Z" fill="url(#paint10_linear_33_1856)"/>
<path opacity="0.8" d="M245.925 56.5803L197.197 84.7342L148.469 56.5803L197.197 28.494L245.925 56.5803Z" fill="url(#paint11_radial_33_1856)"/>
<path opacity="0.8" d="M148.469 56.5801V85.1399L197.197 113.226V84.734L148.469 56.5801Z" fill="url(#paint12_linear_33_1856)"/>
<path opacity="0.8" d="M245.925 56.5801V85.1399L197.197 113.226V84.734L245.925 56.5801Z" fill="url(#paint13_linear_33_1856)"/>
<path d="M221.561 70.657L197.197 84.734L172.833 70.657L197.197 56.5801L221.561 70.657Z" fill="#8B78FF"/>
<path opacity="0.3" d="M98.2172 28.494V57.3282L49.4893 85.4821V56.5803L98.2172 28.494Z" fill="url(#paint14_linear_33_1856)"/>
<path opacity="0.3" d="M98.2178 28.9018L98.2413 57.0116L146.969 85.1655L146.946 56.9881L98.2178 28.9018Z" fill="url(#paint15_radial_33_1856)"/>
<path d="M146.945 85.142L98.2172 113.296L49.4893 85.142L98.2172 56.988L146.945 85.142Z" fill="url(#paint16_radial_33_1856)"/>
<path d="M73.8535 85.6521V70.657L98.2175 56.5801L122.581 70.657V85.6521L98.2175 99.729L73.8535 85.6521Z" fill="url(#paint17_linear_33_1856)"/>
<path opacity="0.8" d="M146.945 56.5803L98.2172 84.7342L49.4893 56.5803L98.2172 28.494L146.945 56.5803Z" fill="url(#paint18_radial_33_1856)"/>
<path opacity="0.8" d="M49.4893 56.5801V85.1399L98.2172 113.226V84.734L49.4893 56.5801Z" fill="url(#paint19_linear_33_1856)"/>
<path opacity="0.8" d="M146.946 56.5801V85.1399L98.2178 113.226V84.734L146.946 56.5801Z" fill="url(#paint20_linear_33_1856)"/>
<path d="M122.581 70.657L98.2175 84.734L73.8535 70.657L98.2175 56.5801L122.581 70.657Z" fill="#8B78FF"/>
<path opacity="0.3" d="M147.707 56.988V85.8222L98.9795 113.976V85.0743L147.707 56.988Z" fill="url(#paint21_linear_33_1856)"/>
<path opacity="0.3" d="M147.708 57.3958L147.732 85.5056L196.46 113.66L196.436 85.4821L147.708 57.3958Z" fill="url(#paint22_radial_33_1856)"/>
<path d="M196.435 113.636L147.707 141.79L98.9795 113.636L147.707 85.4821L196.435 113.636Z" fill="url(#paint23_radial_33_1856)"/>
<path d="M123.344 114.146V99.1511L147.708 85.0741L172.072 99.1511V114.146L147.708 128.223L123.344 114.146Z" fill="url(#paint24_linear_33_1856)"/>
<path opacity="0.8" d="M196.435 85.0743L147.707 113.228L98.9795 85.0743L147.707 56.988L196.435 85.0743Z" fill="url(#paint25_radial_33_1856)"/>
<path opacity="0.8" d="M98.9795 85.0741V113.634L147.707 141.72V113.228L98.9795 85.0741Z" fill="url(#paint26_linear_33_1856)"/>
<path opacity="0.8" d="M196.436 85.0741V113.634L147.708 141.72V113.228L196.436 85.0741Z" fill="url(#paint27_linear_33_1856)"/>
<path d="M172.072 99.1511L147.708 113.228L123.344 99.1511L147.708 85.0741L172.072 99.1511Z" fill="#8B78FF"/>
<path opacity="0.3" d="M246.687 56.988V85.8222L197.959 113.976V85.0743L246.687 56.988Z" fill="url(#paint28_linear_33_1856)"/>
<path opacity="0.3" d="M246.688 57.3958L246.711 85.5056L295.439 113.66L295.415 85.4821L246.688 57.3958Z" fill="url(#paint29_radial_33_1856)"/>
<path d="M295.415 113.636L246.687 141.79L197.959 113.636L246.687 85.4821L295.415 113.636Z" fill="url(#paint30_radial_33_1856)"/>
<path d="M222.323 114.146V99.1511L246.687 85.0741L271.051 99.1511V114.146L246.687 128.223L222.323 114.146Z" fill="url(#paint31_linear_33_1856)"/>
<path opacity="0.8" d="M295.415 85.0743L246.687 113.228L197.959 85.0743L246.687 56.988L295.415 85.0743Z" fill="url(#paint32_radial_33_1856)"/>
<path opacity="0.8" d="M197.959 85.0741V113.634L246.687 141.72V113.228L197.959 85.0741Z" fill="url(#paint33_linear_33_1856)"/>
<path opacity="0.8" d="M295.415 85.0741V113.634L246.688 141.72V113.228L295.415 85.0741Z" fill="url(#paint34_linear_33_1856)"/>
<path d="M271.051 99.1511L246.687 113.228L222.323 99.1511L246.687 85.0741L271.051 99.1511Z" fill="#8B78FF"/>
<path opacity="0.3" d="M48.728 56.988V85.8222L0 113.976V85.0743L48.728 56.988Z" fill="url(#paint35_linear_33_1856)"/>
<path opacity="0.3" d="M48.7285 57.3958L48.752 85.5056L97.48 113.66L97.4565 85.4821L48.7285 57.3958Z" fill="url(#paint36_radial_33_1856)"/>
<path d="M97.456 113.636L48.728 141.79L0 113.636L48.728 85.4821L97.456 113.636Z" fill="url(#paint37_radial_33_1856)"/>
<path d="M24.3643 114.146V99.1511L48.7282 85.0741L73.0922 99.1511V114.146L48.7282 128.223L24.3643 114.146Z" fill="url(#paint38_linear_33_1856)"/>
<path opacity="0.8" d="M97.456 85.0743L48.728 113.228L0 85.0743L48.728 56.988L97.456 85.0743Z" fill="url(#paint39_radial_33_1856)"/>
<path opacity="0.8" d="M0 85.0741V113.634L48.728 141.72V113.228L0 85.0741Z" fill="url(#paint40_linear_33_1856)"/>
<path opacity="0.8" d="M97.4565 85.0741V113.634L48.7285 141.72V113.228L97.4565 85.0741Z" fill="url(#paint41_linear_33_1856)"/>
<path d="M73.0922 99.1511L48.7282 113.228L24.3643 99.1511L48.7282 85.0741L73.0922 99.1511Z" fill="#8B78FF"/>
<path opacity="0.3" d="M98.2172 85.4821V114.316L49.4893 142.47V113.568L98.2172 85.4821Z" fill="url(#paint42_linear_33_1856)"/>
<path opacity="0.3" d="M98.2178 85.8899L98.2413 114L146.969 142.154L146.946 113.976L98.2178 85.8899Z" fill="url(#paint43_radial_33_1856)"/>
<path d="M146.945 142.13L98.2172 170.284L49.4893 142.13L98.2172 113.976L146.945 142.13Z" fill="url(#paint44_radial_33_1856)"/>
<path d="M73.8535 142.64V127.645L98.2175 113.568L122.581 127.645V142.64L98.2175 156.717L73.8535 142.64Z" fill="url(#paint45_linear_33_1856)"/>
<path opacity="0.8" d="M146.945 113.568L98.2172 141.722L49.4893 113.568L98.2172 85.4821L146.945 113.568Z" fill="url(#paint46_radial_33_1856)"/>
<path opacity="0.8" d="M49.4893 113.568V142.128L98.2172 170.214V141.722L49.4893 113.568Z" fill="url(#paint47_linear_33_1856)"/>
<path opacity="0.8" d="M146.946 113.568V142.128L98.2178 170.214V141.722L146.946 113.568Z" fill="url(#paint48_linear_33_1856)"/>
<path d="M122.581 127.645L98.2175 141.722L73.8535 127.645L98.2175 113.568L122.581 127.645Z" fill="#8B78FF"/>
<path opacity="0.3" d="M197.197 85.4821V114.316L148.469 142.47V113.568L197.197 85.4821Z" fill="url(#paint49_linear_33_1856)"/>
<path opacity="0.3" d="M197.197 85.8899L197.221 114L245.949 142.154L245.925 113.976L197.197 85.8899Z" fill="url(#paint50_radial_33_1856)"/>
<path d="M245.925 142.13L197.197 170.284L148.469 142.13L197.197 113.976L245.925 142.13Z" fill="url(#paint51_radial_33_1856)"/>
<path d="M172.833 142.64V127.645L197.197 113.568L221.561 127.645V142.64L197.197 156.717L172.833 142.64Z" fill="url(#paint52_linear_33_1856)"/>
<path opacity="0.8" d="M245.925 113.568L197.197 141.722L148.469 113.568L197.197 85.4821L245.925 113.568Z" fill="url(#paint53_radial_33_1856)"/>
<path opacity="0.8" d="M148.469 113.568V142.128L197.197 170.214V141.722L148.469 113.568Z" fill="url(#paint54_linear_33_1856)"/>
<path opacity="0.8" d="M245.925 113.568V142.128L197.197 170.214V141.722L245.925 113.568Z" fill="url(#paint55_linear_33_1856)"/>
<path d="M221.561 127.645L197.197 141.722L172.833 127.645L197.197 113.568L221.561 127.645Z" fill="#8B78FF"/>
<path opacity="0.3" d="M147.707 113.976V142.81L98.9795 170.964V142.062L147.707 113.976Z" fill="url(#paint56_linear_33_1856)"/>
<path opacity="0.3" d="M147.708 114.384L147.732 142.494L196.46 170.648L196.436 142.47L147.708 114.384Z" fill="url(#paint57_radial_33_1856)"/>
<path d="M196.435 170.624L147.707 198.778L98.9795 170.624L147.707 142.47L196.435 170.624Z" fill="url(#paint58_radial_33_1856)"/>
<path d="M123.344 171.134V156.139L147.708 142.062L172.072 156.139V171.134L147.708 185.211L123.344 171.134Z" fill="url(#paint59_linear_33_1856)"/>
<path opacity="0.8" d="M196.435 142.062L147.707 170.216L98.9795 142.062L147.707 113.976L196.435 142.062Z" fill="url(#paint60_radial_33_1856)"/>
<path opacity="0.8" d="M98.9795 142.062V170.622L147.707 198.708V170.216L98.9795 142.062Z" fill="url(#paint61_linear_33_1856)"/>
<path opacity="0.8" d="M196.436 142.062V170.622L147.708 198.708V170.216L196.436 142.062Z" fill="url(#paint62_linear_33_1856)"/>
<path d="M172.072 156.139L147.708 170.216L123.344 156.139L147.708 142.062L172.072 156.139Z" fill="#8B78FF"/>
</g>
<defs>
<linearGradient id="paint0_linear_33_1856" x1="98.9649" y1="42.1775" x2="147.694" y2="42.1775" gradientUnits="userSpaceOnUse">
<stop stop-color="#106EFB"/>
<stop offset="1" stop-color="#A300CC"/>
</linearGradient>
<radialGradient id="paint1_radial_33_1856" cx="0" cy="0" r="1" gradientUnits="userSpaceOnUse" gradientTransform="translate(172.057 42.1777) scale(34.4549 34.4549)">
<stop stop-color="#4A86BE"/>
<stop offset="1" stop-color="#A847E3"/>
</radialGradient>
<radialGradient id="paint2_radial_33_1856" cx="0" cy="0" r="1" gradientUnits="userSpaceOnUse" gradientTransform="translate(147.693 56.6339) scale(39.7866 39.7866)">
<stop stop-color="#69D6D4"/>
<stop offset="1" stop-color="#C274FF"/>
</radialGradient>
<linearGradient id="paint3_linear_33_1856" x1="123.33" y1="56.2438" x2="172.057" y2="56.2438" gradientUnits="userSpaceOnUse">
<stop offset="0.00469163" stop-color="#A6C8FF"/>
<stop offset="1" stop-color="#FF45D6"/>
</linearGradient>
<radialGradient id="paint4_radial_33_1856" cx="0" cy="0" r="1" gradientUnits="userSpaceOnUse" gradientTransform="translate(149.886 66.8204) scale(55.2222 55.2222)">
<stop stop-color="#69D6D4"/>
<stop offset="1" stop-color="#E374FF"/>
</radialGradient>
<linearGradient id="paint5_linear_33_1856" x1="138.141" y1="78.9151" x2="97.2599" y2="55.1709" gradientUnits="userSpaceOnUse">
<stop stop-color="#AD00FF"/>
<stop offset="1" stop-color="#7DA8FB"/>
</linearGradient>
<linearGradient id="paint6_linear_33_1856" x1="147.692" y1="70.313" x2="196.421" y2="70.313" gradientUnits="userSpaceOnUse">
<stop stop-color="#AF2FFE"/>
<stop offset="1" stop-color="#869FF9"/>
</linearGradient>
<linearGradient id="paint7_linear_33_1856" x1="148.454" y1="70.6715" x2="197.183" y2="70.6715" gradientUnits="userSpaceOnUse">
<stop stop-color="#106EFB"/>
<stop offset="1" stop-color="#A300CC"/>
</linearGradient>
<radialGradient id="paint8_radial_33_1856" cx="0" cy="0" r="1" gradientUnits="userSpaceOnUse" gradientTransform="translate(221.547 70.6717) scale(34.4549 34.4549)">
<stop stop-color="#4A86BE"/>
<stop offset="1" stop-color="#A847E3"/>
</radialGradient>
<radialGradient id="paint9_radial_33_1856" cx="0" cy="0" r="1" gradientUnits="userSpaceOnUse" gradientTransform="translate(197.182 85.1279) scale(39.7866 39.7866)">
<stop stop-color="#69D6D4"/>
<stop offset="1" stop-color="#C274FF"/>
</radialGradient>
<linearGradient id="paint10_linear_33_1856" x1="172.82" y1="84.7378" x2="221.546" y2="84.7378" gradientUnits="userSpaceOnUse">
<stop offset="0.00469163" stop-color="#A6C8FF"/>
<stop offset="1" stop-color="#FF45D6"/>
</linearGradient>
<radialGradient id="paint11_radial_33_1856" cx="0" cy="0" r="1" gradientUnits="userSpaceOnUse" gradientTransform="translate(199.375 95.3144) scale(55.2222 55.2222)">
<stop stop-color="#69D6D4"/>
<stop offset="1" stop-color="#E374FF"/>
</radialGradient>
<linearGradient id="paint12_linear_33_1856" x1="187.63" y1="107.409" x2="146.749" y2="83.6649" gradientUnits="userSpaceOnUse">
<stop stop-color="#AD00FF"/>
<stop offset="1" stop-color="#7DA8FB"/>
</linearGradient>
<linearGradient id="paint13_linear_33_1856" x1="197.181" y1="98.8071" x2="245.91" y2="98.8071" gradientUnits="userSpaceOnUse">
<stop stop-color="#AF2FFE"/>
<stop offset="1" stop-color="#869FF9"/>
</linearGradient>
<linearGradient id="paint14_linear_33_1856" x1="49.4747" y1="70.6715" x2="98.2034" y2="70.6715" gradientUnits="userSpaceOnUse">
<stop stop-color="#106EFB"/>
<stop offset="1" stop-color="#A300CC"/>
</linearGradient>
<radialGradient id="paint15_radial_33_1856" cx="0" cy="0" r="1" gradientUnits="userSpaceOnUse" gradientTransform="translate(122.567 70.6717) scale(34.4549 34.4549)">
<stop stop-color="#4A86BE"/>
<stop offset="1" stop-color="#A847E3"/>
</radialGradient>
<radialGradient id="paint16_radial_33_1856" cx="0" cy="0" r="1" gradientUnits="userSpaceOnUse" gradientTransform="translate(98.2023 85.1279) scale(39.7866 39.7866)">
<stop stop-color="#69D6D4"/>
<stop offset="1" stop-color="#C274FF"/>
</radialGradient>
<linearGradient id="paint17_linear_33_1856" x1="73.8403" y1="84.7378" x2="122.567" y2="84.7378" gradientUnits="userSpaceOnUse">
<stop offset="0.00469163" stop-color="#A6C8FF"/>
<stop offset="1" stop-color="#FF45D6"/>
</linearGradient>
<radialGradient id="paint18_radial_33_1856" cx="0" cy="0" r="1" gradientUnits="userSpaceOnUse" gradientTransform="translate(100.395 95.3144) scale(55.2222 55.2222)">
<stop stop-color="#69D6D4"/>
<stop offset="1" stop-color="#E374FF"/>
</radialGradient>
<linearGradient id="paint19_linear_33_1856" x1="88.651" y1="107.409" x2="47.7696" y2="83.6649" gradientUnits="userSpaceOnUse">
<stop stop-color="#AD00FF"/>
<stop offset="1" stop-color="#7DA8FB"/>
</linearGradient>
<linearGradient id="paint20_linear_33_1856" x1="98.2019" y1="98.8071" x2="146.931" y2="98.8071" gradientUnits="userSpaceOnUse">
<stop stop-color="#AF2FFE"/>
<stop offset="1" stop-color="#869FF9"/>
</linearGradient>
<linearGradient id="paint21_linear_33_1856" x1="98.9649" y1="99.1656" x2="147.694" y2="99.1656" gradientUnits="userSpaceOnUse">
<stop stop-color="#106EFB"/>
<stop offset="1" stop-color="#A300CC"/>
</linearGradient>
<radialGradient id="paint22_radial_33_1856" cx="0" cy="0" r="1" gradientUnits="userSpaceOnUse" gradientTransform="translate(172.057 99.1658) scale(34.4549 34.4549)">
<stop stop-color="#4A86BE"/>
<stop offset="1" stop-color="#A847E3"/>
</radialGradient>
<radialGradient id="paint23_radial_33_1856" cx="0" cy="0" r="1" gradientUnits="userSpaceOnUse" gradientTransform="translate(147.693 113.622) scale(39.7866 39.7866)">
<stop stop-color="#69D6D4"/>
<stop offset="1" stop-color="#C274FF"/>
</radialGradient>
<linearGradient id="paint24_linear_33_1856" x1="123.33" y1="113.232" x2="172.057" y2="113.232" gradientUnits="userSpaceOnUse">
<stop offset="0.00469163" stop-color="#A6C8FF"/>
<stop offset="1" stop-color="#FF45D6"/>
</linearGradient>
<radialGradient id="paint25_radial_33_1856" cx="0" cy="0" r="1" gradientUnits="userSpaceOnUse" gradientTransform="translate(149.886 123.808) scale(55.2222 55.2222)">
<stop stop-color="#69D6D4"/>
<stop offset="1" stop-color="#E374FF"/>
</radialGradient>
<linearGradient id="paint26_linear_33_1856" x1="138.141" y1="135.903" x2="97.2599" y2="112.159" gradientUnits="userSpaceOnUse">
<stop stop-color="#AD00FF"/>
<stop offset="1" stop-color="#7DA8FB"/>
</linearGradient>
<linearGradient id="paint27_linear_33_1856" x1="147.692" y1="127.301" x2="196.421" y2="127.301" gradientUnits="userSpaceOnUse">
<stop stop-color="#AF2FFE"/>
<stop offset="1" stop-color="#869FF9"/>
</linearGradient>
<linearGradient id="paint28_linear_33_1856" x1="197.944" y1="99.1656" x2="246.673" y2="99.1656" gradientUnits="userSpaceOnUse">
<stop stop-color="#106EFB"/>
<stop offset="1" stop-color="#A300CC"/>
</linearGradient>
<radialGradient id="paint29_radial_33_1856" cx="0" cy="0" r="1" gradientUnits="userSpaceOnUse" gradientTransform="translate(271.037 99.1658) scale(34.4549 34.4549)">
<stop stop-color="#4A86BE"/>
<stop offset="1" stop-color="#A847E3"/>
</radialGradient>
<radialGradient id="paint30_radial_33_1856" cx="0" cy="0" r="1" gradientUnits="userSpaceOnUse" gradientTransform="translate(246.672 113.622) scale(39.7866 39.7866)">
<stop stop-color="#69D6D4"/>
<stop offset="1" stop-color="#C274FF"/>
</radialGradient>
<linearGradient id="paint31_linear_33_1856" x1="222.31" y1="113.232" x2="271.037" y2="113.232" gradientUnits="userSpaceOnUse">
<stop offset="0.00469163" stop-color="#A6C8FF"/>
<stop offset="1" stop-color="#FF45D6"/>
</linearGradient>
<radialGradient id="paint32_radial_33_1856" cx="0" cy="0" r="1" gradientUnits="userSpaceOnUse" gradientTransform="translate(248.865 123.808) scale(55.2222 55.2222)">
<stop stop-color="#69D6D4"/>
<stop offset="1" stop-color="#E374FF"/>
</radialGradient>
<linearGradient id="paint33_linear_33_1856" x1="237.121" y1="135.903" x2="196.239" y2="112.159" gradientUnits="userSpaceOnUse">
<stop stop-color="#AD00FF"/>
<stop offset="1" stop-color="#7DA8FB"/>
</linearGradient>
<linearGradient id="paint34_linear_33_1856" x1="246.672" y1="127.301" x2="295.4" y2="127.301" gradientUnits="userSpaceOnUse">
<stop stop-color="#AF2FFE"/>
<stop offset="1" stop-color="#869FF9"/>
</linearGradient>
<linearGradient id="paint35_linear_33_1856" x1="-0.0145507" y1="99.1656" x2="48.7141" y2="99.1656" gradientUnits="userSpaceOnUse">
<stop stop-color="#106EFB"/>
<stop offset="1" stop-color="#A300CC"/>
</linearGradient>
<radialGradient id="paint36_radial_33_1856" cx="0" cy="0" r="1" gradientUnits="userSpaceOnUse" gradientTransform="translate(73.078 99.1658) scale(34.4549 34.4549)">
<stop stop-color="#4A86BE"/>
<stop offset="1" stop-color="#A847E3"/>
</radialGradient>
<radialGradient id="paint37_radial_33_1856" cx="0" cy="0" r="1" gradientUnits="userSpaceOnUse" gradientTransform="translate(48.7131 113.622) scale(39.7866 39.7866)">
<stop stop-color="#69D6D4"/>
<stop offset="1" stop-color="#C274FF"/>
</radialGradient>
<linearGradient id="paint38_linear_33_1856" x1="24.351" y1="113.232" x2="73.0777" y2="113.232" gradientUnits="userSpaceOnUse">
<stop offset="0.00469163" stop-color="#A6C8FF"/>
<stop offset="1" stop-color="#FF45D6"/>
</linearGradient>
<radialGradient id="paint39_radial_33_1856" cx="0" cy="0" r="1" gradientUnits="userSpaceOnUse" gradientTransform="translate(50.9061 123.808) scale(55.2222 55.2222)">
<stop stop-color="#69D6D4"/>
<stop offset="1" stop-color="#E374FF"/>
</radialGradient>
<linearGradient id="paint40_linear_33_1856" x1="39.1617" y1="135.903" x2="-1.71963" y2="112.159" gradientUnits="userSpaceOnUse">
<stop stop-color="#AD00FF"/>
<stop offset="1" stop-color="#7DA8FB"/>
</linearGradient>
<linearGradient id="paint41_linear_33_1856" x1="48.7127" y1="127.301" x2="97.4413" y2="127.301" gradientUnits="userSpaceOnUse">
<stop stop-color="#AF2FFE"/>
<stop offset="1" stop-color="#869FF9"/>
</linearGradient>
<linearGradient id="paint42_linear_33_1856" x1="49.4747" y1="127.66" x2="98.2034" y2="127.66" gradientUnits="userSpaceOnUse">
<stop stop-color="#106EFB"/>
<stop offset="1" stop-color="#A300CC"/>
</linearGradient>
<radialGradient id="paint43_radial_33_1856" cx="0" cy="0" r="1" gradientUnits="userSpaceOnUse" gradientTransform="translate(122.567 127.66) scale(34.4549 34.4549)">
<stop stop-color="#4A86BE"/>
<stop offset="1" stop-color="#A847E3"/>
</radialGradient>
<radialGradient id="paint44_radial_33_1856" cx="0" cy="0" r="1" gradientUnits="userSpaceOnUse" gradientTransform="translate(98.2023 142.116) scale(39.7866 39.7866)">
<stop stop-color="#69D6D4"/>
<stop offset="1" stop-color="#C274FF"/>
</radialGradient>
<linearGradient id="paint45_linear_33_1856" x1="73.8403" y1="141.726" x2="122.567" y2="141.726" gradientUnits="userSpaceOnUse">
<stop offset="0.00469163" stop-color="#A6C8FF"/>
<stop offset="1" stop-color="#FF45D6"/>
</linearGradient>
<radialGradient id="paint46_radial_33_1856" cx="0" cy="0" r="1" gradientUnits="userSpaceOnUse" gradientTransform="translate(100.395 152.302) scale(55.2222 55.2222)">
<stop stop-color="#69D6D4"/>
<stop offset="1" stop-color="#E374FF"/>
</radialGradient>
<linearGradient id="paint47_linear_33_1856" x1="88.651" y1="164.397" x2="47.7696" y2="140.653" gradientUnits="userSpaceOnUse">
<stop stop-color="#AD00FF"/>
<stop offset="1" stop-color="#7DA8FB"/>
</linearGradient>
<linearGradient id="paint48_linear_33_1856" x1="98.2019" y1="155.795" x2="146.931" y2="155.795" gradientUnits="userSpaceOnUse">
<stop stop-color="#AF2FFE"/>
<stop offset="1" stop-color="#869FF9"/>
</linearGradient>
<linearGradient id="paint49_linear_33_1856" x1="148.454" y1="127.66" x2="197.183" y2="127.66" gradientUnits="userSpaceOnUse">
<stop stop-color="#106EFB"/>
<stop offset="1" stop-color="#A300CC"/>
</linearGradient>
<radialGradient id="paint50_radial_33_1856" cx="0" cy="0" r="1" gradientUnits="userSpaceOnUse" gradientTransform="translate(221.547 127.66) scale(34.4549 34.4549)">
<stop stop-color="#4A86BE"/>
<stop offset="1" stop-color="#A847E3"/>
</radialGradient>
<radialGradient id="paint51_radial_33_1856" cx="0" cy="0" r="1" gradientUnits="userSpaceOnUse" gradientTransform="translate(197.182 142.116) scale(39.7866 39.7866)">
<stop stop-color="#69D6D4"/>
<stop offset="1" stop-color="#C274FF"/>
</radialGradient>
<linearGradient id="paint52_linear_33_1856" x1="172.82" y1="141.726" x2="221.546" y2="141.726" gradientUnits="userSpaceOnUse">
<stop offset="0.00469163" stop-color="#A6C8FF"/>
<stop offset="1" stop-color="#FF45D6"/>
</linearGradient>
<radialGradient id="paint53_radial_33_1856" cx="0" cy="0" r="1" gradientUnits="userSpaceOnUse" gradientTransform="translate(199.375 152.302) scale(55.2222 55.2222)">
<stop stop-color="#69D6D4"/>
<stop offset="1" stop-color="#E374FF"/>
</radialGradient>
<linearGradient id="paint54_linear_33_1856" x1="187.63" y1="164.397" x2="146.749" y2="140.653" gradientUnits="userSpaceOnUse">
<stop stop-color="#AD00FF"/>
<stop offset="1" stop-color="#7DA8FB"/>
</linearGradient>
<linearGradient id="paint55_linear_33_1856" x1="197.181" y1="155.795" x2="245.91" y2="155.795" gradientUnits="userSpaceOnUse">
<stop stop-color="#AF2FFE"/>
<stop offset="1" stop-color="#869FF9"/>
</linearGradient>
<linearGradient id="paint56_linear_33_1856" x1="98.9649" y1="156.154" x2="147.694" y2="156.154" gradientUnits="userSpaceOnUse">
<stop stop-color="#106EFB"/>
<stop offset="1" stop-color="#A300CC"/>
</linearGradient>
<radialGradient id="paint57_radial_33_1856" cx="0" cy="0" r="1" gradientUnits="userSpaceOnUse" gradientTransform="translate(172.057 156.154) scale(34.4549 34.4549)">
<stop stop-color="#4A86BE"/>
<stop offset="1" stop-color="#A847E3"/>
</radialGradient>
<radialGradient id="paint58_radial_33_1856" cx="0" cy="0" r="1" gradientUnits="userSpaceOnUse" gradientTransform="translate(147.693 170.61) scale(39.7866 39.7866)">
<stop stop-color="#69D6D4"/>
<stop offset="1" stop-color="#C274FF"/>
</radialGradient>
<linearGradient id="paint59_linear_33_1856" x1="123.33" y1="170.22" x2="172.057" y2="170.22" gradientUnits="userSpaceOnUse">
<stop offset="0.00469163" stop-color="#A6C8FF"/>
<stop offset="1" stop-color="#FF45D6"/>
</linearGradient>
<radialGradient id="paint60_radial_33_1856" cx="0" cy="0" r="1" gradientUnits="userSpaceOnUse" gradientTransform="translate(149.886 180.797) scale(55.2222 55.2222)">
<stop stop-color="#69D6D4"/>
<stop offset="1" stop-color="#E374FF"/>
</radialGradient>
<linearGradient id="paint61_linear_33_1856" x1="138.141" y1="192.891" x2="97.2599" y2="169.147" gradientUnits="userSpaceOnUse">
<stop stop-color="#AD00FF"/>
<stop offset="1" stop-color="#7DA8FB"/>
</linearGradient>
<linearGradient id="paint62_linear_33_1856" x1="147.692" y1="184.289" x2="196.421" y2="184.289" gradientUnits="userSpaceOnUse">
<stop stop-color="#AF2FFE"/>
<stop offset="1" stop-color="#869FF9"/>
</linearGradient>
<clipPath id="clip0_33_1856">
<rect width="295" height="199" fill="white"/>
</clipPath>
</defs>
</svg>
