<svg width="295" height="414" viewBox="0 0 295 414" fill="none" xmlns="http://www.w3.org/2000/svg">
<g clip-path="url(#clip0_33_1436)">
<path d="M245.547 245.358L196.819 273.512L148.091 245.358L196.819 217.272L245.547 245.358Z" fill="url(#paint0_linear_33_1436)"/>
<path d="M148.091 245.358V301.666L196.819 329.752V273.512L148.091 245.358Z" fill="url(#paint1_linear_33_1436)"/>
<path d="M245.547 245.358V301.666L196.819 329.752V273.512L245.547 245.358Z" fill="url(#paint2_radial_33_1436)"/>
<path d="M148.091 245.623L99.3627 273.777L50.6348 245.623L99.3627 217.469L148.091 245.623Z" fill="url(#paint3_linear_33_1436)"/>
<path d="M50.6348 245.623V301.864L99.3627 330.018V273.777L50.6348 245.623Z" fill="url(#paint4_linear_33_1436)"/>
<path d="M148.091 245.623V301.931L99.3633 330.018V273.777L148.091 245.623Z" fill="url(#paint5_radial_33_1436)"/>
<path d="M196.819 273.512L148.091 301.666L99.3633 273.512L148.091 245.358L196.819 273.512Z" fill="url(#paint6_linear_33_1436)"/>
<path d="M99.3633 273.512V329.752L148.091 357.906V301.666L99.3633 273.512Z" fill="url(#paint7_linear_33_1436)"/>
<path d="M196.82 273.512V329.752L148.092 357.906V301.666L196.82 273.512Z" fill="url(#paint8_radial_33_1436)"/>
<path d="M295.415 272.618L246.687 300.704L197.959 272.618L246.687 244.464L295.415 272.618Z" fill="url(#paint9_linear_33_1436)"/>
<path d="M197.959 272.618V328.858L246.687 357.012V300.704L197.959 272.618Z" fill="url(#paint10_linear_33_1436)"/>
<path d="M295.415 272.618V328.858L246.688 357.012V300.704L295.415 272.618Z" fill="url(#paint11_radial_33_1436)"/>
<path d="M245.925 301.112L197.197 329.198L148.469 301.112L197.197 272.958L245.925 301.112Z" fill="url(#paint12_linear_33_1436)"/>
<path d="M148.469 301.112V357.352L197.197 385.506V329.198L148.469 301.112Z" fill="url(#paint13_linear_33_1436)"/>
<path d="M245.925 301.112V357.352L197.197 385.506V329.198L245.925 301.112Z" fill="url(#paint14_radial_33_1436)"/>
<path d="M97.456 272.618L48.728 300.772L0 272.618L48.728 244.464L97.456 272.618Z" fill="url(#paint15_linear_33_1436)"/>
<path d="M0 272.618V328.926L48.728 357.012V300.772L0 272.618Z" fill="url(#paint16_linear_33_1436)"/>
<path d="M97.4565 272.618V328.926L48.7285 357.012V300.772L97.4565 272.618Z" fill="url(#paint17_radial_33_1436)"/>
<path d="M196.435 158.642L147.707 186.796L98.9795 158.642L147.707 130.488L196.435 158.642Z" fill="url(#paint18_linear_33_1436)"/>
<path d="M98.9795 158.642V214.95L147.707 243.036V186.796L98.9795 158.642Z" fill="url(#paint19_linear_33_1436)"/>
<path d="M196.435 158.642V214.95L147.707 243.036V186.796L196.435 158.642Z" fill="url(#paint20_radial_33_1436)"/>
<path d="M146.946 187.136L98.2182 215.29L49.4902 187.136L98.2182 158.982L146.946 187.136Z" fill="url(#paint21_linear_33_1436)"/>
<path d="M49.4902 187.136V243.444L98.2182 271.53V215.29L49.4902 187.136Z" fill="url(#paint22_linear_33_1436)"/>
<path d="M146.947 187.136V243.444L98.2188 271.53V215.29L146.947 187.136Z" fill="url(#paint23_radial_33_1436)"/>
<path d="M245.925 187.136L197.197 215.29L148.469 187.136L197.197 158.982L245.925 187.136Z" fill="url(#paint24_linear_33_1436)"/>
<path d="M148.469 187.136V243.444L197.197 271.53V215.29L148.469 187.136Z" fill="url(#paint25_linear_33_1436)"/>
<path d="M245.925 187.136V243.444L197.197 271.53V215.29L245.925 187.136Z" fill="url(#paint26_radial_33_1436)"/>
<path d="M196.435 215.63L147.707 243.784L98.9795 215.63L147.707 187.476L196.435 215.63Z" fill="url(#paint27_linear_33_1436)"/>
<path d="M98.9795 215.63V271.938L147.707 300.024V243.784L98.9795 215.63Z" fill="url(#paint28_linear_33_1436)"/>
<path d="M196.435 215.63V271.938L147.707 300.024V243.784L196.435 215.63Z" fill="url(#paint29_radial_33_1436)"/>
<path d="M146.945 301.112L98.2172 329.198L49.4893 301.112L98.2172 272.958L146.945 301.112Z" fill="url(#paint30_linear_33_1436)"/>
<path d="M49.4893 301.112V357.352L98.2172 385.506V329.198L49.4893 301.112Z" fill="url(#paint31_linear_33_1436)"/>
<path d="M146.946 301.112V357.352L98.2178 385.506V329.198L146.946 301.112Z" fill="url(#paint32_radial_33_1436)"/>
<path d="M295.414 215.63L246.686 243.784L197.958 215.63L246.686 187.476L295.414 215.63Z" fill="url(#paint33_linear_33_1436)"/>
<path d="M197.958 215.63V271.938L246.686 300.024V243.784L197.958 215.63Z" fill="url(#paint34_linear_33_1436)"/>
<path d="M295.415 215.63V271.938L246.687 300.024V243.784L295.415 215.63Z" fill="url(#paint35_radial_33_1436)"/>
<path d="M245.925 244.124L197.197 272.278L148.469 244.124L197.197 215.97L245.925 244.124Z" fill="url(#paint36_linear_33_1436)"/>
<path d="M148.469 244.124V300.432L197.197 328.518V272.278L148.469 244.124Z" fill="url(#paint37_linear_33_1436)"/>
<path d="M245.925 244.124V300.432L197.197 328.518V272.278L245.925 244.124Z" fill="url(#paint38_radial_33_1436)"/>
<path d="M97.456 215.63L48.728 243.784L0 215.63L48.728 187.476L97.456 215.63Z" fill="url(#paint39_linear_33_1436)"/>
<path d="M0 215.63V271.938L48.728 300.024V243.784L0 215.63Z" fill="url(#paint40_linear_33_1436)"/>
<path d="M97.4565 215.63V271.938L48.7285 300.024V243.784L97.4565 215.63Z" fill="url(#paint41_radial_33_1436)"/>
<path d="M146.946 244.124L98.2182 272.278L49.4902 244.124L98.2182 215.97L146.946 244.124Z" fill="url(#paint42_linear_33_1436)"/>
<path d="M49.4902 244.124V300.432L98.2182 328.518V272.278L49.4902 244.124Z" fill="url(#paint43_linear_33_1436)"/>
<path d="M146.947 244.124V300.432L98.2188 328.518V272.278L146.947 244.124Z" fill="url(#paint44_radial_33_1436)"/>
<path d="M196.435 329.606L147.707 357.76L98.9795 329.606L147.707 301.452L196.435 329.606Z" fill="url(#paint45_linear_33_1436)"/>
<path d="M98.9795 329.606V385.914L147.707 414V357.76L98.9795 329.606Z" fill="url(#paint46_linear_33_1436)"/>
<path d="M196.435 329.606V385.914L147.707 414V357.76L196.435 329.606Z" fill="url(#paint47_radial_33_1436)"/>
<path d="M197 330L99 274" stroke="#0072C3" stroke-width="0.2" strokeMiterlimit="10"/>
<path d="M196.435 272.618L147.707 300.772L98.9795 272.618L147.707 244.464L196.435 272.618Z" fill="url(#paint48_linear_33_1436)"/>
<path d="M98.9795 272.618V328.926L147.707 357.012V300.772L98.9795 272.618Z" fill="url(#paint49_linear_33_1436)"/>
<path d="M196.435 272.618V328.926L147.707 357.012V300.772L196.435 272.618Z" fill="url(#paint50_radial_33_1436)"/>
</g>
<defs>
<linearGradient id="paint0_linear_33_1436" x1="148.077" y1="245.382" x2="245.53" y2="245.382" gradientUnits="userSpaceOnUse">
<stop stop-color="#C9DEFF"/>
<stop offset="1" stop-color="#C9DEFF"/>
</linearGradient>
<linearGradient id="paint1_linear_33_1436" x1="196.39" y1="272.136" x2="151.121" y2="301.328" gradientUnits="userSpaceOnUse">
<stop stop-color="#97C1FF"/>
<stop offset="1" stop-color="#C9DEFF"/>
</linearGradient>
<radialGradient id="paint2_radial_33_1436" cx="0" cy="0" r="1" gradientUnits="userSpaceOnUse" gradientTransform="translate(221.166 287.583) scale(34.455 34.455)">
<stop offset="0.0330941" stop-color="#4A86BE"/>
<stop offset="1" stop-color="#4795E3"/>
</radialGradient>
<linearGradient id="paint3_linear_33_1436" x1="50.6235" y1="245.63" x2="148.077" y2="245.63" gradientUnits="userSpaceOnUse">
<stop stop-color="#C9DEFF"/>
<stop offset="1" stop-color="#C9DEFF"/>
</linearGradient>
<linearGradient id="paint4_linear_33_1436" x1="98.9362" y1="272.384" x2="53.6674" y2="301.576" gradientUnits="userSpaceOnUse">
<stop stop-color="#97C1FF"/>
<stop offset="1" stop-color="#C9DEFF"/>
</linearGradient>
<radialGradient id="paint5_radial_33_1436" cx="0" cy="0" r="1" gradientUnits="userSpaceOnUse" gradientTransform="translate(123.713 287.831) scale(34.455)">
<stop stop-color="#4A86BE"/>
<stop offset="1" stop-color="#4795E3"/>
</radialGradient>
<linearGradient id="paint6_linear_33_1436" x1="99.3507" y1="273.515" x2="196.804" y2="273.515" gradientUnits="userSpaceOnUse">
<stop stop-color="#C9DEFF"/>
<stop offset="1" stop-color="#C9DEFF"/>
</linearGradient>
<linearGradient id="paint7_linear_33_1436" x1="147.663" y1="300.269" x2="102.395" y2="329.461" gradientUnits="userSpaceOnUse">
<stop stop-color="#97C1FF"/>
<stop offset="1" stop-color="#C9DEFF"/>
</linearGradient>
<radialGradient id="paint8_radial_33_1436" cx="0" cy="0" r="1" gradientUnits="userSpaceOnUse" gradientTransform="translate(172.44 315.716) scale(34.455)">
<stop stop-color="#69D6D4"/>
<stop offset="0.0330941" stop-color="#4A86BE"/>
<stop offset="1" stop-color="#4795E3"/>
</radialGradient>
<linearGradient id="paint9_linear_33_1436" x1="197.945" y1="272.602" x2="295.398" y2="272.602" gradientUnits="userSpaceOnUse">
<stop stop-color="#C9DEFF"/>
<stop offset="1" stop-color="#C9DEFF"/>
</linearGradient>
<linearGradient id="paint10_linear_33_1436" x1="246.258" y1="299.357" x2="200.989" y2="328.549" gradientUnits="userSpaceOnUse">
<stop stop-color="#97C1FF"/>
<stop offset="1" stop-color="#C9DEFF"/>
</linearGradient>
<radialGradient id="paint11_radial_33_1436" cx="0" cy="0" r="1" gradientUnits="userSpaceOnUse" gradientTransform="translate(271.035 314.803) scale(34.455)">
<stop stop-color="#4A86BE"/>
<stop offset="1" stop-color="#4795E3"/>
</radialGradient>
<linearGradient id="paint12_linear_33_1436" x1="148.455" y1="301.096" x2="245.908" y2="301.096" gradientUnits="userSpaceOnUse">
<stop stop-color="#C9DEFF"/>
<stop offset="1" stop-color="#C9DEFF"/>
</linearGradient>
<linearGradient id="paint13_linear_33_1436" x1="196.768" y1="327.851" x2="151.499" y2="357.043" gradientUnits="userSpaceOnUse">
<stop stop-color="#97C1FF"/>
<stop offset="1" stop-color="#C9DEFF"/>
</linearGradient>
<radialGradient id="paint14_radial_33_1436" cx="0" cy="0" r="1" gradientUnits="userSpaceOnUse" gradientTransform="translate(221.544 343.297) scale(34.455)">
<stop stop-color="#4A86BE"/>
<stop offset="1" stop-color="#4795E3"/>
</radialGradient>
<linearGradient id="paint15_linear_33_1436" x1="-0.0152275" y1="272.63" x2="97.4381" y2="272.63" gradientUnits="userSpaceOnUse">
<stop stop-color="#C9DEFF"/>
<stop offset="1" stop-color="#C9DEFF"/>
</linearGradient>
<linearGradient id="paint16_linear_33_1436" x1="48.2975" y1="299.384" x2="3.02871" y2="328.576" gradientUnits="userSpaceOnUse">
<stop stop-color="#97C1FF"/>
<stop offset="1" stop-color="#C9DEFF"/>
</linearGradient>
<radialGradient id="paint17_radial_33_1436" cx="0" cy="0" r="1" gradientUnits="userSpaceOnUse" gradientTransform="translate(73.0743 314.831) scale(34.455)">
<stop stop-color="#4A86BE"/>
<stop offset="1" stop-color="#4795E3"/>
</radialGradient>
<linearGradient id="paint18_linear_33_1436" x1="98.9643" y1="158.654" x2="196.418" y2="158.654" gradientUnits="userSpaceOnUse">
<stop stop-color="#C9DEFF"/>
<stop offset="1" stop-color="#C9DEFF"/>
</linearGradient>
<linearGradient id="paint19_linear_33_1436" x1="147.277" y1="185.408" x2="102.008" y2="214.6" gradientUnits="userSpaceOnUse">
<stop stop-color="#97C1FF"/>
<stop offset="1" stop-color="#C9DEFF"/>
</linearGradient>
<radialGradient id="paint20_radial_33_1436" cx="0" cy="0" r="1" gradientUnits="userSpaceOnUse" gradientTransform="translate(172.053 200.855) scale(34.455)">
<stop stop-color="#4A86BE"/>
<stop offset="1" stop-color="#4795E3"/>
</radialGradient>
<linearGradient id="paint21_linear_33_1436" x1="49.475" y1="187.148" x2="146.928" y2="187.148" gradientUnits="userSpaceOnUse">
<stop stop-color="#C9DEFF"/>
<stop offset="1" stop-color="#C9DEFF"/>
</linearGradient>
<linearGradient id="paint22_linear_33_1436" x1="97.7877" y1="213.902" x2="52.5189" y2="243.094" gradientUnits="userSpaceOnUse">
<stop stop-color="#97C1FF"/>
<stop offset="1" stop-color="#C9DEFF"/>
</linearGradient>
<radialGradient id="paint23_radial_33_1436" cx="0" cy="0" r="1" gradientUnits="userSpaceOnUse" gradientTransform="translate(122.565 229.349) scale(34.455)">
<stop stop-color="#4A86BE"/>
<stop offset="1" stop-color="#4795E3"/>
</radialGradient>
<linearGradient id="paint24_linear_33_1436" x1="148.454" y1="187.148" x2="245.907" y2="187.148" gradientUnits="userSpaceOnUse">
<stop stop-color="#C9DEFF"/>
<stop offset="1" stop-color="#C9DEFF"/>
</linearGradient>
<linearGradient id="paint25_linear_33_1436" x1="196.766" y1="213.902" x2="151.497" y2="243.094" gradientUnits="userSpaceOnUse">
<stop stop-color="#97C1FF"/>
<stop offset="1" stop-color="#C9DEFF"/>
</linearGradient>
<radialGradient id="paint26_radial_33_1436" cx="0" cy="0" r="1" gradientUnits="userSpaceOnUse" gradientTransform="translate(221.543 229.349) scale(34.455)">
<stop stop-color="#4A86BE"/>
<stop offset="1" stop-color="#4795E3"/>
</radialGradient>
<linearGradient id="paint27_linear_33_1436" x1="98.9643" y1="215.642" x2="196.418" y2="215.642" gradientUnits="userSpaceOnUse">
<stop stop-color="#C9DEFF"/>
<stop offset="1" stop-color="#C9DEFF"/>
</linearGradient>
<linearGradient id="paint28_linear_33_1436" x1="147.277" y1="242.396" x2="102.008" y2="271.588" gradientUnits="userSpaceOnUse">
<stop stop-color="#97C1FF"/>
<stop offset="1" stop-color="#C9DEFF"/>
</linearGradient>
<radialGradient id="paint29_radial_33_1436" cx="0" cy="0" r="1" gradientUnits="userSpaceOnUse" gradientTransform="translate(172.053 257.843) scale(34.455)">
<stop stop-color="#4A86BE"/>
<stop offset="1" stop-color="#4795E3"/>
</radialGradient>
<linearGradient id="paint30_linear_33_1436" x1="49.4761" y1="301.091" x2="146.929" y2="301.091" gradientUnits="userSpaceOnUse">
<stop stop-color="#C9DEFF"/>
<stop offset="1" stop-color="#C9DEFF"/>
</linearGradient>
<linearGradient id="paint31_linear_33_1436" x1="97.7888" y1="327.845" x2="52.5199" y2="357.037" gradientUnits="userSpaceOnUse">
<stop stop-color="#97C1FF"/>
<stop offset="1" stop-color="#C9DEFF"/>
</linearGradient>
<radialGradient id="paint32_radial_33_1436" cx="0" cy="0" r="1" gradientUnits="userSpaceOnUse" gradientTransform="translate(122.566 343.292) scale(34.455)">
<stop stop-color="#69D6D4"/>
<stop offset="0.0330941" stop-color="#4A86BE"/>
<stop offset="1" stop-color="#4795E3"/>
</radialGradient>
<linearGradient id="paint33_linear_33_1436" x1="197.943" y1="215.642" x2="295.396" y2="215.642" gradientUnits="userSpaceOnUse">
<stop stop-color="#C9DEFF"/>
<stop offset="1" stop-color="#C9DEFF"/>
</linearGradient>
<linearGradient id="paint34_linear_33_1436" x1="246.255" y1="242.396" x2="200.987" y2="271.588" gradientUnits="userSpaceOnUse">
<stop stop-color="#97C1FF"/>
<stop offset="1" stop-color="#C9DEFF"/>
</linearGradient>
<radialGradient id="paint35_radial_33_1436" cx="0" cy="0" r="1" gradientUnits="userSpaceOnUse" gradientTransform="translate(271.032 257.843) scale(34.455)">
<stop stop-color="#4A86BE"/>
<stop offset="1" stop-color="#4795E3"/>
</radialGradient>
<linearGradient id="paint36_linear_33_1436" x1="148.454" y1="244.136" x2="245.907" y2="244.136" gradientUnits="userSpaceOnUse">
<stop stop-color="#C9DEFF"/>
<stop offset="1" stop-color="#C9DEFF"/>
</linearGradient>
<linearGradient id="paint37_linear_33_1436" x1="196.766" y1="270.89" x2="151.497" y2="300.082" gradientUnits="userSpaceOnUse">
<stop stop-color="#97C1FF"/>
<stop offset="1" stop-color="#C9DEFF"/>
</linearGradient>
<radialGradient id="paint38_radial_33_1436" cx="0" cy="0" r="1" gradientUnits="userSpaceOnUse" gradientTransform="translate(221.543 286.337) scale(34.455)">
<stop stop-color="#4A86BE"/>
<stop offset="1" stop-color="#4795E3"/>
</radialGradient>
<linearGradient id="paint39_linear_33_1436" x1="-0.0152275" y1="215.642" x2="97.4381" y2="215.642" gradientUnits="userSpaceOnUse">
<stop stop-color="#C9DEFF"/>
<stop offset="1" stop-color="#C9DEFF"/>
</linearGradient>
<linearGradient id="paint40_linear_33_1436" x1="48.2975" y1="242.396" x2="3.02871" y2="271.588" gradientUnits="userSpaceOnUse">
<stop stop-color="#97C1FF"/>
<stop offset="1" stop-color="#C9DEFF"/>
</linearGradient>
<radialGradient id="paint41_radial_33_1436" cx="0" cy="0" r="1" gradientUnits="userSpaceOnUse" gradientTransform="translate(73.0743 257.843) scale(34.455)">
<stop stop-color="#4A86BE"/>
<stop offset="1" stop-color="#4795E3"/>
</radialGradient>
<linearGradient id="paint42_linear_33_1436" x1="49.475" y1="244.136" x2="146.928" y2="244.136" gradientUnits="userSpaceOnUse">
<stop stop-color="#C9DEFF"/>
<stop offset="1" stop-color="#C9DEFF"/>
</linearGradient>
<linearGradient id="paint43_linear_33_1436" x1="97.7877" y1="270.89" x2="52.5189" y2="300.082" gradientUnits="userSpaceOnUse">
<stop stop-color="#97C1FF"/>
<stop offset="1" stop-color="#C9DEFF"/>
</linearGradient>
<radialGradient id="paint44_radial_33_1436" cx="0" cy="0" r="1" gradientUnits="userSpaceOnUse" gradientTransform="translate(122.565 286.337) scale(34.455)">
<stop stop-color="#4A86BE"/>
<stop offset="1" stop-color="#4795E3"/>
</radialGradient>
<linearGradient id="paint45_linear_33_1436" x1="98.9643" y1="329.618" x2="196.418" y2="329.618" gradientUnits="userSpaceOnUse">
<stop stop-color="#C9DEFF"/>
<stop offset="1" stop-color="#C9DEFF"/>
</linearGradient>
<linearGradient id="paint46_linear_33_1436" x1="147.277" y1="356.372" x2="102.008" y2="385.564" gradientUnits="userSpaceOnUse">
<stop stop-color="#97C1FF"/>
<stop offset="1" stop-color="#C9DEFF"/>
</linearGradient>
<radialGradient id="paint47_radial_33_1436" cx="0" cy="0" r="1" gradientUnits="userSpaceOnUse" gradientTransform="translate(172.053 371.819) scale(34.455)">
<stop stop-color="#4A86BE"/>
<stop offset="1" stop-color="#4795E3"/>
</radialGradient>
<linearGradient id="paint48_linear_33_1436" x1="98.9643" y1="272.63" x2="196.418" y2="272.63" gradientUnits="userSpaceOnUse">
<stop stop-color="#C9DEFF"/>
<stop offset="1" stop-color="#C9DEFF"/>
</linearGradient>
<linearGradient id="paint49_linear_33_1436" x1="147.277" y1="299.384" x2="102.008" y2="328.576" gradientUnits="userSpaceOnUse">
<stop stop-color="#97C1FF"/>
<stop offset="1" stop-color="#C9DEFF"/>
</linearGradient>
<radialGradient id="paint50_radial_33_1436" cx="0" cy="0" r="1" gradientUnits="userSpaceOnUse" gradientTransform="translate(172.053 314.831) scale(34.455)">
<stop stop-color="#4A86BE"/>
<stop offset="1" stop-color="#4795E3"/>
</radialGradient>
<clipPath id="clip0_33_1436">
<rect width="295" height="414" fill="white"/>
</clipPath>
</defs>
</svg>
