<svg width="65" height="76" viewBox="0 0 65 76" fill="none" xmlns="http://www.w3.org/2000/svg">
<path d="M49.6835 27.9502L32.4219 18.0395L15.1603 27.9502L32.4219 37.8609L49.6835 27.9502Z" fill="#51FFC4
" stroke="black" stroke-width="0.5" stroke-miterlimit="10" stroke-linejoin="round"/>
<path d="M32.4222 57.6787L49.6839 47.768V27.9465L32.4222 37.8572V57.6787Z" fill="#51FFC4
" stroke="black" stroke-width="0.5" stroke-miterlimit="10" stroke-linejoin="round"/>
<path d="M32.4219 57.6787V37.8572L15.1603 27.9465V47.768L32.4219 57.6787Z" fill="#51FFC4
" stroke="black" stroke-width="0.5" stroke-miterlimit="10" stroke-linejoin="round"/>
<g style="mix-blend-mode:multiply">
<path d="M65 19.0128L32.5 0.349998L0 19.0128L32.5 37.6756L65 19.0128Z" fill="#DDE1E6"/>
<path d="M65 19.0128L32.5 0.349998L0 19.0128L32.5 37.6756L65 19.0128Z" stroke="black" stroke-width="0.5" stroke-miterlimit="10" stroke-linejoin="round"/>
</g>
<g style="mix-blend-mode:multiply">
<path d="M32 75L64.9996 56.4889V19.4668L32 37.9778V75Z" fill="#DDE1E6"/>
<path d="M32 75L64.9996 56.4889V19.4668L32 37.9778V75Z" stroke="black" stroke-width="0.5" stroke-miterlimit="10" stroke-linejoin="round"/>
</g>
<g style="mix-blend-mode:multiply">
<path d="M32 75V37.9778L0 19.4668V56.4889L32 75Z" fill="#DDE1E6"/>
<path d="M32 75V37.9778L0 19.4668V56.4889L32 75Z" stroke="black" stroke-width="0.5" stroke-miterlimit="10" stroke-linejoin="round"/>
</g>
</svg>
