<svg width="77" height="123" viewBox="0 0 77 123" fill="none" xmlns="http://www.w3.org/2000/svg">
<g opacity="0.5">
<path d="M74.7095 65.977L74.7138 44.1172L76.8412 42.8905L76.8368 64.7503L74.7095 65.977Z" fill="white" stroke="black" stroke-width="0.317416"/>
<path d="M74.3964 44.1159L74.392 65.9756L0.878986 23.5399L0.878984 1.68014L74.3964 44.1159Z" fill="white" stroke="black" stroke-width="0.317416"/>
<g style="mix-blend-mode:multiply">
<path d="M62.5809 47.4829L28.5856 27.8531C28.0369 27.5363 27.5908 27.7951 27.5908 28.4285C27.6097 28.7736 27.7096 29.1093 27.8825 29.4085C28.0553 29.7076 28.2962 29.9619 28.5856 30.1506L62.5809 49.7805C63.1296 50.1016 63.5757 49.8429 63.5757 49.2094C63.5575 48.8636 63.4579 48.527 63.285 48.2271C63.1122 47.927 62.8709 47.672 62.5809 47.4829Z" fill="black"/>
</g>
<path d="M3.16492 0.183884L76.6823 42.6152L74.5551 43.8418L1.03824 1.40633L3.16492 0.183884Z" fill="white" stroke="black" stroke-width="0.317416"/>
<g style="mix-blend-mode:multiply" opacity="0.5">
<path d="M3.16498 22.5125L76.6824 64.9438L74.5552 66.1704L1.0383 23.735L3.16498 22.5125Z" fill="white" stroke="black" stroke-width="0.317416"/>
</g>
<g style="mix-blend-mode:multiply" opacity="0.5">
<path d="M0.879102 23.3613L0.883479 1.50148L3.01084 0.274761L3.00644 22.1346L0.879102 23.3613Z" fill="white" stroke="black" stroke-width="0.317416"/>
</g>
</g>
<g opacity="0.5">
<path d="M74.7095 94.142L74.7138 72.2822L76.8412 71.0555L76.8368 92.9153L74.7095 94.142Z" fill="white" stroke="black" stroke-width="0.317416"/>
<path d="M74.3964 72.2809L74.392 94.1406L0.878986 51.7049L0.878984 29.8451L74.3964 72.2809Z" fill="white" stroke="black" stroke-width="0.317416"/>
<g style="mix-blend-mode:multiply">
<path d="M62.5809 75.6479L28.5856 56.0181C28.0369 55.7013 27.5908 55.9601 27.5908 56.5935C27.6097 56.9386 27.7096 57.2743 27.8825 57.5735C28.0553 57.8726 28.2962 58.1269 28.5856 58.3156L62.5809 77.9455C63.1296 78.2666 63.5757 78.0079 63.5757 77.3744C63.5575 77.0286 63.4579 76.692 63.285 76.3921C63.1122 76.092 62.8709 75.837 62.5809 75.6479Z" fill="black"/>
</g>
<path d="M3.16492 28.3489L76.6823 70.7802L74.5551 72.0068L1.03824 29.5714L3.16492 28.3489Z" fill="white" stroke="black" stroke-width="0.317416"/>
<g style="mix-blend-mode:multiply" opacity="0.5">
<path d="M3.16498 50.6773L76.6824 93.1086L74.5552 94.3352L1.0383 51.8998L3.16498 50.6773Z" fill="white" stroke="black" stroke-width="0.317416"/>
</g>
<g style="mix-blend-mode:multiply" opacity="0.5">
<path d="M0.879102 51.5261L0.883479 29.6663L3.01084 28.4396L3.00644 50.2994L0.879102 51.5261Z" fill="white" stroke="black" stroke-width="0.317416"/>
</g>
</g>
<g opacity="0.5">
<path d="M74.7095 122.309L74.7138 100.449L76.8412 99.222L76.8368 121.082L74.7095 122.309Z" fill="white" stroke="black" stroke-width="0.317416"/>
<path d="M74.3964 100.447L74.392 122.307L0.878986 79.8715L0.878984 58.0117L74.3964 100.447Z" fill="white" stroke="black" stroke-width="0.317416"/>
<g style="mix-blend-mode:multiply">
<path d="M62.5808 103.814L28.5855 84.1843C28.0368 83.8676 27.5907 84.1264 27.5907 84.7598C27.6096 85.1048 27.7095 85.4406 27.8824 85.7398C28.0552 86.0389 28.2961 86.2932 28.5855 86.4819L62.5808 106.112C63.1295 106.433 63.5756 106.174 63.5756 105.541C63.5574 105.195 63.4579 104.858 63.2849 104.558C63.1121 104.258 62.8708 104.003 62.5808 103.814Z" fill="black"/>
</g>
<path d="M3.16492 56.5153L76.6823 98.9466L74.5551 100.173L1.03824 57.7377L3.16492 56.5153Z" fill="white" stroke="black" stroke-width="0.317416"/>
<g style="mix-blend-mode:multiply" opacity="0.5">
<path d="M3.16498 78.8437L76.6824 121.275L74.5552 122.502L1.0383 80.0662L3.16498 78.8437Z" fill="white" stroke="black" stroke-width="0.317416"/>
</g>
<g style="mix-blend-mode:multiply" opacity="0.5">
<path d="M0.879102 79.6942L0.883479 57.8344L3.01084 56.6077L3.00644 78.4675L0.879102 79.6942Z" fill="white" stroke="black" stroke-width="0.317416"/>
</g>
</g>
</svg>
