<svg width="104" height="91" viewBox="0 0 104 91" fill="none" xmlns="http://www.w3.org/2000/svg">
<g opacity="0.5">
<path d="M104.194 88.5746L104.2 58.2129L100.861 60.1387L100.854 90.5004L104.194 88.5746Z" fill="white"/>
<path d="M100.701 60.2301L100.695 90.2254L0.158708 32.19V2.19478L100.701 60.2301Z" fill="white" stroke="black" stroke-width="0.317416"/>
<g style="mix-blend-mode:multiply">
<path d="M84.5029 64.8616L38.0645 38.0468C37.3149 37.6141 36.7055 37.9675 36.7055 38.8329C36.7313 39.3042 36.8678 39.7628 37.1039 40.1715C37.34 40.5802 37.6691 40.9275 38.0645 41.1853L84.5029 68.0001C85.2524 68.4389 85.8619 68.0855 85.8619 67.2201C85.837 66.7477 85.7009 66.2879 85.4648 65.8781C85.2286 65.4683 84.899 65.12 84.5029 64.8616Z" fill="black"/>
</g>
<path d="M0 1.91992L100.86 60.1385" stroke="#F3F3F3" stroke-width="0.952247"/>
<path d="M3.33951 0.183152L103.882 58.2124L100.86 59.9551L0.317967 1.91998L3.33951 0.183152Z" fill="white" stroke="black" stroke-width="0.317416"/>
<g style="mix-blend-mode:multiply" opacity="0.5">
<path d="M3.33951 30.6832L103.882 88.7124L100.86 90.4551L0.317966 32.42L3.33951 30.6832Z" fill="white" stroke="black" stroke-width="0.317416"/>
</g>
<g style="mix-blend-mode:multiply" opacity="0.5">
<path d="M0.158763 32.0127L0.164771 2.01749L3.18699 0.274753L3.18096 30.27L0.158763 32.0127Z" fill="white" stroke="black" stroke-width="0.317416"/>
</g>
</g>
</svg>
