<svg width="75" height="185" viewBox="0 0 75 185" fill="none" xmlns="http://www.w3.org/2000/svg">
<g clip-path="url(#clip0_6_281)">
<g opacity="0.5">
<path d="M2.24944 119.761L2.24517 141.248L0.158795 142.451L0.163171 120.964L2.24944 119.761Z" fill="white" stroke="black" stroke-width="0.317416"/>
<path d="M2.56262 141.249L2.5669 119.762L74.8413 161.483L74.8413 182.97L2.56262 141.249Z" fill="white" stroke="black" stroke-width="0.317416"/>
<g style="mix-blend-mode:multiply">
<path d="M14.1772 137.94L47.6022 157.241C48.1417 157.552 48.5803 157.298 48.5803 156.675C48.5617 156.336 48.4635 156.006 48.2935 155.711C48.1236 155.417 47.8867 155.167 47.6022 154.982L14.1772 135.681C13.6377 135.365 13.1991 135.62 13.1991 136.243C13.217 136.583 13.3149 136.914 13.4849 137.209C13.6548 137.504 13.8921 137.754 14.1772 137.94Z" fill="black"/>
</g>
<path d="M72.5964 184.443L0.317669 142.726L2.40385 141.523L74.682 183.244L72.5964 184.443Z" fill="white" stroke="black" stroke-width="0.317416"/>
<g style="mix-blend-mode:multiply" opacity="0.5">
<path d="M72.5963 162.489L0.317608 120.772L2.40379 119.569L74.682 161.29L72.5963 162.489Z" fill="white" stroke="black" stroke-width="0.317416"/>
</g>
<g style="mix-blend-mode:multiply" opacity="0.5">
<path d="M74.8412 161.662L74.8369 183.149L72.7505 184.352L72.7548 162.865L74.8412 161.662Z" fill="white" stroke="black" stroke-width="0.317416"/>
</g>
</g>
<g opacity="0.5">
<path d="M2.24944 92.0686L2.24517 113.556L0.158795 114.759L0.163171 93.2717L2.24944 92.0686Z" fill="white" stroke="black" stroke-width="0.317416"/>
<path d="M2.56262 113.557L2.5669 92.0699L74.8413 133.791L74.8413 155.278L2.56262 113.557Z" fill="white" stroke="black" stroke-width="0.317416"/>
<g style="mix-blend-mode:multiply">
<path d="M14.1772 110.248L47.6022 129.548C48.1417 129.86 48.5803 129.605 48.5803 128.982C48.5617 128.643 48.4635 128.313 48.2935 128.019C48.1236 127.725 47.8867 127.475 47.6022 127.289L14.1772 107.989C13.6377 107.673 13.1991 107.927 13.1991 108.55C13.217 108.89 13.3149 109.221 13.4849 109.516C13.6548 109.811 13.8921 110.062 14.1772 110.248Z" fill="black"/>
</g>
<path d="M72.5964 156.75L0.317669 115.034L2.40385 113.831L74.682 155.551L72.5964 156.75Z" fill="white" stroke="black" stroke-width="0.317416"/>
<g style="mix-blend-mode:multiply" opacity="0.5">
<path d="M72.5963 134.796L0.317608 93.08L2.40379 91.8771L74.682 133.597L72.5963 134.796Z" fill="white" stroke="black" stroke-width="0.317416"/>
</g>
<g style="mix-blend-mode:multiply" opacity="0.5">
<path d="M74.8412 133.97L74.8369 155.456L72.7505 156.66L72.7548 135.173L74.8412 133.97Z" fill="white" stroke="black" stroke-width="0.317416"/>
</g>
</g>
<g opacity="0.5">
<path d="M2.24944 64.3746L2.24517 85.8615L0.158795 87.0646L0.163171 65.5776L2.24944 64.3746Z" fill="white" stroke="black" stroke-width="0.317416"/>
<path d="M2.56262 85.8628L2.5669 64.3759L74.8413 106.097L74.8413 127.584L2.56262 85.8628Z" fill="white" stroke="black" stroke-width="0.317416"/>
<g style="mix-blend-mode:multiply">
<path d="M14.1773 82.5541L47.6022 101.855C48.1418 102.166 48.5804 101.912 48.5804 101.289C48.5618 100.95 48.4636 100.619 48.2936 100.325C48.1237 100.031 47.8868 99.7811 47.6022 99.5955L14.1773 80.295C13.6378 79.9793 13.1991 80.2336 13.1991 80.8565C13.217 81.1965 13.315 81.5275 13.485 81.8224C13.6549 82.1174 13.8922 82.3681 14.1773 82.5541Z" fill="black"/>
</g>
<path d="M72.5964 129.056L0.317669 87.34L2.40385 86.1371L74.682 127.858L72.5964 129.056Z" fill="white" stroke="black" stroke-width="0.317416"/>
<g style="mix-blend-mode:multiply" opacity="0.5">
<path d="M72.5963 107.103L0.317608 65.3862L2.40379 64.1832L74.682 105.904L72.5963 107.103Z" fill="white" stroke="black" stroke-width="0.317416"/>
</g>
<g style="mix-blend-mode:multiply" opacity="0.5">
<path d="M74.8412 106.274L74.8369 127.761L72.7505 128.964L72.7548 107.477L74.8412 106.274Z" fill="white" stroke="black" stroke-width="0.317416"/>
</g>
</g>
</g>
<defs>
<clipPath id="clip0_6_281">
<rect width="75" height="185" fill="white"/>
</clipPath>
</defs>
</svg>
