<svg width="246" height="353" viewBox="0 0 246 353" fill="none" xmlns="http://www.w3.org/2000/svg">
<path d="M220.984 166.773L188.492 185.501L156 166.773L188.492 148L220.984 166.773Z" fill="white" stroke="black" stroke-width="0.5"/>
<path d="M156 166.773V204.275L188.492 223.048V185.501L156 166.773Z" fill="white" stroke="black" stroke-width="0.5"/>
<path d="M220.984 166.773V204.275L188.492 223.048V185.501L220.984 166.773Z" fill="white" stroke="black" stroke-width="0.5"/>
<path d="M220.984 128.773L188.492 147.546L156 128.773L188.492 110L220.984 128.773Z" fill="white" stroke="black" stroke-width="0.5"/>
<path d="M156 128.773V166.32L188.492 185.048V147.547L156 128.773Z" fill="white" stroke="black" stroke-width="0.5"/>
<path d="M220.984 128.773V166.32L188.492 185.048V147.547L220.984 128.773Z" fill="white" stroke="black" stroke-width="0.5"/>
<path d="M220.984 90.7732L188.492 109.546L156 90.7732L188.492 72L220.984 90.7732Z" fill="white" stroke="black" stroke-width="0.5"/>
<path d="M156 90.7733V128.32L188.492 147.048V109.547L156 90.7733Z" fill="white" stroke="black" stroke-width="0.5"/>
<path d="M220.984 90.7733V128.32L188.492 147.048V109.547L220.984 90.7733Z" fill="white" stroke="black" stroke-width="0.5"/>
</svg>
