<svg>
  <path
     d="M 12.989649,22.660076 V 18.92595 H 4.2128591 V 0.382987 H 0 v 22.277089 z m 22.372821,0 -7.404419,-22.277089 h -5.234158 l -7.468251,22.277089 h 4.276691 l 1.755358,-5.680977 h 7.915068 l 1.787274,5.680977 z m -7.18101,-9.28744 h -5.87247 l 2.840488,-9.159777 h 0.159578 z m 10.468343,9.28744 h 11.298123 c 3.287306,0 5.744808,-2.808573 5.744808,-6.38312 0,-3.797957 -2.872404,-5.170327 -4.819256,-5.202243 v -0.191494 c 2.042598,-0.127662 3.98945,-1.404286 3.98945,-4.78734 0,-3.446884 -2.234092,-5.712892 -5.904386,-5.712892 H 38.649803 Z m 4.21286,-9.542765 h 5.87247 c 1.59578,0 2.553248,0.893637 2.553248,2.457502 v 1.08513 c 0,1.563864 -0.957468,2.425585 -2.553248,2.425585 h -5.87247 z m 0,-9.159777 h 5.202242 c 1.531949,0 2.425586,0.861721 2.425586,2.361755 v 0.989383 c 0,1.468118 -0.893637,2.361755 -2.425586,2.361755 h -5.202242 z m 21.160049,10.117245 h 3.98945 l 4.149028,8.585297 h 4.691593 l -4.563931,-9.064031 c 2.744742,-0.925552 4.149028,-3.255391 4.149028,-6.319288 0,-4.21286 -2.521332,-6.89377 -6.574613,-6.89377 H 59.809853 v 22.277089 h 4.212859 z m 0,-3.542631 V 4.053281 h 5.425652 c 1.627696,0 2.617079,0.861721 2.617079,2.489417 v 1.468117 c 0,1.627696 -0.989383,2.521333 -2.617079,2.521333 z M 99.161768,22.660076 91.75735,0.382987 h -5.234158 l -7.468251,22.277089 h 4.276691 l 1.755358,-5.680977 h 7.915069 l 1.787273,5.680977 z m -7.181009,-9.28744 h -5.87247 l 2.840488,-9.159777 h 0.159578 z m 10.468351,9.28744 h 8.10656 c 5.80864,0 9.60659,-3.734126 9.60659,-11.138545 0,-7.404419 -3.79795,-11.138544 -9.60659,-11.138544 h -8.10656 z m 4.21286,-3.734126 V 4.117112 h 3.8937 c 3.12773,0 5.13841,1.851105 5.13841,5.649061 v 3.510716 c 0,3.797957 -2.01068,5.649061 -5.13841,5.649061 z m 26.52183,4.117113 c 5.87247,0 9.70235,-3.98945 9.70235,-11.521532 C 142.88615,3.98945 139.05627,0 133.1838,0 c -5.84055,0 -9.70234,3.98945 -9.70234,11.521531 0,7.532082 3.86179,11.521532 9.70234,11.521532 z m 0,-3.734125 c -3.19156,0 -5.23416,-2.266008 -5.23416,-6.063964 V 9.798089 c 0,-3.797956 2.0426,-6.063964 5.23416,-6.063964 3.19156,0 5.23416,2.266008 5.23416,6.063964 v 3.446885 c 0,3.797956 -2.0426,6.063964 -5.23416,6.063964 z m 18.19189,-5.234159 h 3.98945 l 4.14903,8.585297 h 4.69159 l -4.56393,-9.064031 c 2.74474,-0.925552 4.14903,-3.255391 4.14903,-6.319288 0,-4.21286 -2.52134,-6.89377 -6.57462,-6.89377 h -10.05341 v 22.277089 h 4.21286 z m 0,-3.542631 V 4.053281 h 5.42565 c 1.6277,0 2.61708,0.861721 2.61708,2.489417 v 1.468117 c 0,1.627696 -0.98938,2.521333 -2.61708,2.521333 z m 26.17079,12.127928 v -3.383054 h -2.96815 V 3.766041 h 2.96815 V 0.382987 h -10.11725 v 3.383054 h 2.93624 v 15.510981 h -2.93624 v 3.383054 z M 196.75971,4.117112 V 0.382987 h -16.85144 v 3.734125 h 6.31929 v 18.542964 h 4.21286 V 4.117112 Z m 18.12804,18.542964 V 18.92595 h -10.46832 v -5.680976 h 9.25553 V 9.510849 h -9.25553 V 4.117112 h 10.46832 V 0.382987 h -14.68117 v 22.277089 z"
     />
</svg>
