<svg width="295" height="199" viewBox="0 0 295 199" fill="none" xmlns="http://www.w3.org/2000/svg">
<path opacity="0.3" d="M147.707 0V28.0843L98.9795 56.2383V28.0863L147.707 0Z" fill="url(#paint0_linear_33_1857)"/>
<path opacity="0.3" d="M147.708 6.10352e-05V28.0843L196.436 56.2383V28.0863L147.708 6.10352e-05Z" fill="url(#paint1_radial_33_1857)"/>
<path d="M196.435 56.1981L147.707 84.352L98.9795 56.1981L147.707 28.0441L196.435 56.1981Z" fill="url(#paint2_radial_33_1857)"/>
<path d="M123.344 57.1581V42.163L147.708 28.0861L172.072 42.163V57.1581L147.708 71.2351L123.344 57.1581Z" fill="url(#paint3_linear_33_1857)"/>
<path opacity="0.8" d="M196.435 28.0863L147.707 56.2402L98.9795 28.0863L147.707 0L196.435 28.0863Z" fill="url(#paint4_radial_33_1857)"/>
<path d="M172.072 42.1631L147.708 56.2401L123.344 42.1631L147.708 28.0862L172.072 42.1631Z" fill="#FF78D9"/>
<path opacity="0.8" d="M98.9795 27.6783V56.2382L147.707 84.3245V55.8323L98.9795 27.6783Z" fill="url(#paint5_linear_33_1857)"/>
<path opacity="0.8" d="M196.436 28.0861V56.24L147.708 84.3263V56.24L196.436 28.0861Z" fill="url(#paint6_linear_33_1857)"/>
<path opacity="0.3" d="M197.197 28.494V56.5784L148.469 84.7323V56.5803L197.197 28.494Z" fill="url(#paint7_linear_33_1857)"/>
<path opacity="0.3" d="M197.197 28.494V56.5783L245.925 84.7322V56.5803L197.197 28.494Z" fill="url(#paint8_radial_33_1857)"/>
<path d="M245.925 84.6921L197.197 112.846L148.469 84.6921L197.197 56.5381L245.925 84.6921Z" fill="url(#paint9_radial_33_1857)"/>
<path d="M172.833 85.6521V70.657L197.197 56.5801L221.561 70.657V85.6521L197.197 99.7291L172.833 85.6521Z" fill="url(#paint10_linear_33_1857)"/>
<path opacity="0.8" d="M245.925 56.5803L197.197 84.7342L148.469 56.5803L197.197 28.494L245.925 56.5803Z" fill="url(#paint11_radial_33_1857)"/>
<path d="M221.561 70.6572L197.197 84.7342L172.833 70.6572L197.197 56.5802L221.561 70.6572Z" fill="#FF78D9"/>
<path opacity="0.8" d="M148.469 56.1724V84.7322L197.197 112.818V84.3263L148.469 56.1724Z" fill="url(#paint12_linear_33_1857)"/>
<path opacity="0.8" d="M245.925 56.5801V84.734L197.197 112.82V84.734L245.925 56.5801Z" fill="url(#paint13_linear_33_1857)"/>
<path opacity="0.3" d="M98.2172 28.494V56.5784L49.4893 84.7323V56.5803L98.2172 28.494Z" fill="url(#paint14_linear_33_1857)"/>
<path opacity="0.3" d="M98.2178 28.494V56.5783L146.946 84.7322V56.5803L98.2178 28.494Z" fill="url(#paint15_radial_33_1857)"/>
<path d="M146.945 84.6921L98.2172 112.846L49.4893 84.6921L98.2172 56.5381L146.945 84.6921Z" fill="url(#paint16_radial_33_1857)"/>
<path d="M73.8535 85.6521V70.657L98.2175 56.5801L122.581 70.657V85.6521L98.2175 99.7291L73.8535 85.6521Z" fill="url(#paint17_linear_33_1857)"/>
<path opacity="0.8" d="M146.945 56.5803L98.2172 84.7342L49.4893 56.5803L98.2172 28.494L146.945 56.5803Z" fill="url(#paint18_radial_33_1857)"/>
<path d="M122.581 70.6572L98.2175 84.7342L73.8535 70.6572L98.2175 56.5802L122.581 70.6572Z" fill="#FF78D9"/>
<path opacity="0.8" d="M49.4893 56.1724V84.7322L98.2172 112.818V84.3263L49.4893 56.1724Z" fill="url(#paint19_linear_33_1857)"/>
<path opacity="0.8" d="M146.946 56.5801V84.734L98.2178 112.82V84.734L146.946 56.5801Z" fill="url(#paint20_linear_33_1857)"/>
<path opacity="0.3" d="M147.707 56.988V85.0724L98.9795 113.226V85.0743L147.707 56.988Z" fill="url(#paint21_linear_33_1857)"/>
<path opacity="0.3" d="M147.708 56.988V85.0723L196.436 113.226V85.0743L147.708 56.988Z" fill="url(#paint22_radial_33_1857)"/>
<path d="M196.435 113.186L147.707 141.34L98.9795 113.186L147.707 85.0322L196.435 113.186Z" fill="url(#paint23_radial_33_1857)"/>
<path d="M123.344 114.146V99.1511L147.708 85.0741L172.072 99.1511V114.146L147.708 128.223L123.344 114.146Z" fill="url(#paint24_linear_33_1857)"/>
<path opacity="0.8" d="M196.435 85.0743L147.707 113.228L98.9795 85.0743L147.707 56.988L196.435 85.0743Z" fill="url(#paint25_radial_33_1857)"/>
<path d="M172.072 99.1512L147.708 113.228L123.344 99.1512L147.708 85.0742L172.072 99.1512Z" fill="#FF78D9"/>
<path opacity="0.8" d="M98.9795 84.6664V113.226L147.707 141.313V112.82L98.9795 84.6664Z" fill="url(#paint26_linear_33_1857)"/>
<path opacity="0.8" d="M196.436 85.0741V113.228L147.708 141.314V113.228L196.436 85.0741Z" fill="url(#paint27_linear_33_1857)"/>
<path opacity="0.3" d="M246.687 56.988V85.0724L197.959 113.226V85.0743L246.687 56.988Z" fill="url(#paint28_linear_33_1857)"/>
<path opacity="0.3" d="M246.688 56.988V85.0723L295.415 113.226V85.0743L246.688 56.988Z" fill="url(#paint29_radial_33_1857)"/>
<path d="M295.415 113.186L246.687 141.34L197.959 113.186L246.687 85.0322L295.415 113.186Z" fill="url(#paint30_radial_33_1857)"/>
<path d="M222.323 114.146V99.1511L246.687 85.0741L271.051 99.1511V114.146L246.687 128.223L222.323 114.146Z" fill="url(#paint31_linear_33_1857)"/>
<path opacity="0.8" d="M295.415 85.0743L246.687 113.228L197.959 85.0743L246.687 56.988L295.415 85.0743Z" fill="url(#paint32_radial_33_1857)"/>
<path d="M271.051 99.1512L246.687 113.228L222.323 99.1512L246.687 85.0742L271.051 99.1512Z" fill="#FF78D9"/>
<path opacity="0.8" d="M197.959 84.6664V113.226L246.687 141.313V112.82L197.959 84.6664Z" fill="url(#paint33_linear_33_1857)"/>
<path opacity="0.8" d="M295.415 85.0741V113.228L246.688 141.314V113.228L295.415 85.0741Z" fill="url(#paint34_linear_33_1857)"/>
<path opacity="0.3" d="M48.728 56.988V85.0724L0 113.226V85.0743L48.728 56.988Z" fill="url(#paint35_linear_33_1857)"/>
<path opacity="0.3" d="M48.7285 56.988V85.0723L97.4565 113.226V85.0743L48.7285 56.988Z" fill="url(#paint36_radial_33_1857)"/>
<path d="M97.456 113.186L48.728 141.34L0 113.186L48.728 85.0322L97.456 113.186Z" fill="url(#paint37_radial_33_1857)"/>
<path d="M24.3643 114.146V99.1511L48.7282 85.0741L73.0922 99.1511V114.146L48.7282 128.223L24.3643 114.146Z" fill="url(#paint38_linear_33_1857)"/>
<path opacity="0.8" d="M97.456 85.0743L48.728 113.228L0 85.0743L48.728 56.988L97.456 85.0743Z" fill="url(#paint39_radial_33_1857)"/>
<path d="M73.0922 99.1512L48.7282 113.228L24.3643 99.1512L48.7282 85.0742L73.0922 99.1512Z" fill="#FF78D9"/>
<path opacity="0.8" d="M0 84.6664V113.226L48.728 141.313V112.82L0 84.6664Z" fill="url(#paint40_linear_33_1857)"/>
<path opacity="0.8" d="M97.4565 85.0741V113.228L48.7285 141.314V113.228L97.4565 85.0741Z" fill="url(#paint41_linear_33_1857)"/>
<path opacity="0.3" d="M98.2172 85.4821V113.566L49.4893 141.72V113.568L98.2172 85.4821Z" fill="url(#paint42_linear_33_1857)"/>
<path opacity="0.3" d="M98.2178 85.4821V113.566L146.946 141.72V113.568L98.2178 85.4821Z" fill="url(#paint43_radial_33_1857)"/>
<path d="M146.945 141.68L98.2172 169.834L49.4893 141.68L98.2172 113.526L146.945 141.68Z" fill="url(#paint44_radial_33_1857)"/>
<path d="M73.8535 142.64V127.645L98.2175 113.568L122.581 127.645V142.64L98.2175 156.717L73.8535 142.64Z" fill="url(#paint45_linear_33_1857)"/>
<path opacity="0.8" d="M146.945 113.568L98.2172 141.722L49.4893 113.568L98.2172 85.4821L146.945 113.568Z" fill="url(#paint46_radial_33_1857)"/>
<path d="M122.581 127.645L98.2175 141.722L73.8535 127.645L98.2175 113.568L122.581 127.645Z" fill="#FF78D9"/>
<path opacity="0.8" d="M49.4893 113.16V141.72L98.2172 169.807V141.314L49.4893 113.16Z" fill="url(#paint47_linear_33_1857)"/>
<path opacity="0.8" d="M146.946 113.568V141.722L98.2178 169.808V141.722L146.946 113.568Z" fill="url(#paint48_linear_33_1857)"/>
<path opacity="0.3" d="M197.197 85.4821V113.566L148.469 141.72V113.568L197.197 85.4821Z" fill="url(#paint49_linear_33_1857)"/>
<path opacity="0.3" d="M197.197 85.4821V113.566L245.925 141.72V113.568L197.197 85.4821Z" fill="url(#paint50_radial_33_1857)"/>
<path d="M245.925 141.68L197.197 169.834L148.469 141.68L197.197 113.526L245.925 141.68Z" fill="url(#paint51_radial_33_1857)"/>
<path d="M172.833 142.64V127.645L197.197 113.568L221.561 127.645V142.64L197.197 156.717L172.833 142.64Z" fill="url(#paint52_linear_33_1857)"/>
<path opacity="0.8" d="M245.925 113.568L197.197 141.722L148.469 113.568L197.197 85.4821L245.925 113.568Z" fill="url(#paint53_radial_33_1857)"/>
<path d="M221.561 127.645L197.197 141.722L172.833 127.645L197.197 113.568L221.561 127.645Z" fill="#FF78D9"/>
<path opacity="0.8" d="M148.469 113.16V141.72L197.197 169.807V141.314L148.469 113.16Z" fill="url(#paint54_linear_33_1857)"/>
<path opacity="0.8" d="M245.925 113.568V141.722L197.197 169.808V141.722L245.925 113.568Z" fill="url(#paint55_linear_33_1857)"/>
<path opacity="0.3" d="M147.707 113.976V142.06L98.9795 170.214V142.062L147.707 113.976Z" fill="url(#paint56_linear_33_1857)"/>
<path opacity="0.3" d="M147.708 113.976V142.06L196.436 170.214V142.062L147.708 113.976Z" fill="url(#paint57_radial_33_1857)"/>
<path d="M196.435 170.174L147.707 198.328L98.9795 170.174L147.707 142.02L196.435 170.174Z" fill="url(#paint58_radial_33_1857)"/>
<path d="M123.344 171.134V156.139L147.708 142.062L172.072 156.139V171.134L147.708 185.211L123.344 171.134Z" fill="url(#paint59_linear_33_1857)"/>
<path opacity="0.8" d="M196.435 142.062L147.707 170.216L98.9795 142.062L147.707 113.976L196.435 142.062Z" fill="url(#paint60_radial_33_1857)"/>
<path d="M172.072 156.139L147.708 170.216L123.344 156.139L147.708 142.062L172.072 156.139Z" fill="#FF78D9"/>
<path opacity="0.8" d="M98.9795 141.654V170.214L147.707 198.301V169.808L98.9795 141.654Z" fill="url(#paint61_linear_33_1857)"/>
<path opacity="0.8" d="M196.436 142.062V170.216L147.708 198.302V170.216L196.436 142.062Z" fill="url(#paint62_linear_33_1857)"/>
<defs>
<linearGradient id="paint0_linear_33_1857" x1="98.9649" y1="42.1775" x2="147.694" y2="42.1775" gradientUnits="userSpaceOnUse">
<stop stop-color="#FB4810"/>
<stop offset="1" stop-color="#CC0025"/>
</linearGradient>
<radialGradient id="paint1_radial_33_1857" cx="0" cy="0" r="1" gradientUnits="userSpaceOnUse" gradientTransform="translate(172.057 42.1778) scale(34.4549 34.4549)">
<stop stop-color="#BE904A"/>
<stop offset="1" stop-color="#E34750"/>
</radialGradient>
<radialGradient id="paint2_radial_33_1857" cx="0" cy="0" r="1" gradientUnits="userSpaceOnUse" gradientTransform="translate(147.693 56.184) scale(39.7866 39.7866)">
<stop stop-color="#D6AA69"/>
<stop offset="1" stop-color="#FF74AE"/>
</radialGradient>
<linearGradient id="paint3_linear_33_1857" x1="123.33" y1="56.2438" x2="172.057" y2="56.2438" gradientUnits="userSpaceOnUse">
<stop offset="0.00469163" stop-color="#FFBBA6"/>
<stop offset="1" stop-color="#45FF58"/>
</linearGradient>
<radialGradient id="paint4_radial_33_1857" cx="0" cy="0" r="1" gradientUnits="userSpaceOnUse" gradientTransform="translate(149.886 66.8204) scale(55.2222 55.2222)">
<stop stop-color="#D6B169"/>
<stop offset="1" stop-color="#FF74AE"/>
</radialGradient>
<linearGradient id="paint5_linear_33_1857" x1="138.141" y1="78.9151" x2="97.2599" y2="55.1709" gradientUnits="userSpaceOnUse">
<stop stop-color="#FF00A8"/>
<stop offset="1" stop-color="#E32900"/>
</linearGradient>
<linearGradient id="paint6_linear_33_1857" x1="147.692" y1="70.313" x2="196.421" y2="70.313" gradientUnits="userSpaceOnUse">
<stop stop-color="#FE2F6D"/>
<stop offset="1" stop-color="#EDA858"/>
</linearGradient>
<linearGradient id="paint7_linear_33_1857" x1="148.454" y1="70.6715" x2="197.183" y2="70.6715" gradientUnits="userSpaceOnUse">
<stop stop-color="#FB4810"/>
<stop offset="1" stop-color="#CC0025"/>
</linearGradient>
<radialGradient id="paint8_radial_33_1857" cx="0" cy="0" r="1" gradientUnits="userSpaceOnUse" gradientTransform="translate(221.547 70.6717) scale(34.4549 34.4549)">
<stop stop-color="#BE904A"/>
<stop offset="1" stop-color="#E34750"/>
</radialGradient>
<radialGradient id="paint9_radial_33_1857" cx="0" cy="0" r="1" gradientUnits="userSpaceOnUse" gradientTransform="translate(197.182 84.678) scale(39.7866 39.7866)">
<stop stop-color="#D6AA69"/>
<stop offset="1" stop-color="#FF74AE"/>
</radialGradient>
<linearGradient id="paint10_linear_33_1857" x1="172.82" y1="84.7378" x2="221.546" y2="84.7378" gradientUnits="userSpaceOnUse">
<stop offset="0.00469163" stop-color="#FFBBA6"/>
<stop offset="1" stop-color="#45FF58"/>
</linearGradient>
<radialGradient id="paint11_radial_33_1857" cx="0" cy="0" r="1" gradientUnits="userSpaceOnUse" gradientTransform="translate(199.375 95.3144) scale(55.2222 55.2222)">
<stop stop-color="#D6B169"/>
<stop offset="1" stop-color="#FF74AE"/>
</radialGradient>
<linearGradient id="paint12_linear_33_1857" x1="187.63" y1="107.409" x2="146.749" y2="83.665" gradientUnits="userSpaceOnUse">
<stop stop-color="#FF00A8"/>
<stop offset="1" stop-color="#E32900"/>
</linearGradient>
<linearGradient id="paint13_linear_33_1857" x1="197.181" y1="98.8071" x2="245.91" y2="98.8071" gradientUnits="userSpaceOnUse">
<stop stop-color="#FE2F6D"/>
<stop offset="1" stop-color="#EDA858"/>
</linearGradient>
<linearGradient id="paint14_linear_33_1857" x1="49.4747" y1="70.6715" x2="98.2034" y2="70.6715" gradientUnits="userSpaceOnUse">
<stop stop-color="#FB4810"/>
<stop offset="1" stop-color="#CC0025"/>
</linearGradient>
<radialGradient id="paint15_radial_33_1857" cx="0" cy="0" r="1" gradientUnits="userSpaceOnUse" gradientTransform="translate(122.567 70.6717) scale(34.4549 34.4549)">
<stop stop-color="#BE904A"/>
<stop offset="1" stop-color="#E34750"/>
</radialGradient>
<radialGradient id="paint16_radial_33_1857" cx="0" cy="0" r="1" gradientUnits="userSpaceOnUse" gradientTransform="translate(98.2023 84.678) scale(39.7866 39.7866)">
<stop stop-color="#D6AA69"/>
<stop offset="1" stop-color="#FF74AE"/>
</radialGradient>
<linearGradient id="paint17_linear_33_1857" x1="73.8403" y1="84.7378" x2="122.567" y2="84.7378" gradientUnits="userSpaceOnUse">
<stop offset="0.00469163" stop-color="#FFBBA6"/>
<stop offset="1" stop-color="#45FF58"/>
</linearGradient>
<radialGradient id="paint18_radial_33_1857" cx="0" cy="0" r="1" gradientUnits="userSpaceOnUse" gradientTransform="translate(100.395 95.3144) scale(55.2222 55.2222)">
<stop stop-color="#D6B169"/>
<stop offset="1" stop-color="#FF74AE"/>
</radialGradient>
<linearGradient id="paint19_linear_33_1857" x1="88.651" y1="107.409" x2="47.7696" y2="83.665" gradientUnits="userSpaceOnUse">
<stop stop-color="#FF00A8"/>
<stop offset="1" stop-color="#E32900"/>
</linearGradient>
<linearGradient id="paint20_linear_33_1857" x1="98.2019" y1="98.8071" x2="146.931" y2="98.8071" gradientUnits="userSpaceOnUse">
<stop stop-color="#FE2F6D"/>
<stop offset="1" stop-color="#EDA858"/>
</linearGradient>
<linearGradient id="paint21_linear_33_1857" x1="98.9649" y1="99.1656" x2="147.694" y2="99.1656" gradientUnits="userSpaceOnUse">
<stop stop-color="#FB4810"/>
<stop offset="1" stop-color="#CC0025"/>
</linearGradient>
<radialGradient id="paint22_radial_33_1857" cx="0" cy="0" r="1" gradientUnits="userSpaceOnUse" gradientTransform="translate(172.057 99.1657) scale(34.4549 34.4549)">
<stop stop-color="#BE904A"/>
<stop offset="1" stop-color="#E34750"/>
</radialGradient>
<radialGradient id="paint23_radial_33_1857" cx="0" cy="0" r="1" gradientUnits="userSpaceOnUse" gradientTransform="translate(147.693 113.172) scale(39.7866 39.7866)">
<stop stop-color="#D6AA69"/>
<stop offset="1" stop-color="#FF74AE"/>
</radialGradient>
<linearGradient id="paint24_linear_33_1857" x1="123.33" y1="113.232" x2="172.057" y2="113.232" gradientUnits="userSpaceOnUse">
<stop offset="0.00469163" stop-color="#FFBBA6"/>
<stop offset="1" stop-color="#45FF58"/>
</linearGradient>
<radialGradient id="paint25_radial_33_1857" cx="0" cy="0" r="1" gradientUnits="userSpaceOnUse" gradientTransform="translate(149.886 123.808) scale(55.2222 55.2222)">
<stop stop-color="#D6B169"/>
<stop offset="1" stop-color="#FF74AE"/>
</radialGradient>
<linearGradient id="paint26_linear_33_1857" x1="138.141" y1="135.903" x2="97.2599" y2="112.159" gradientUnits="userSpaceOnUse">
<stop stop-color="#FF00A8"/>
<stop offset="1" stop-color="#E32900"/>
</linearGradient>
<linearGradient id="paint27_linear_33_1857" x1="147.692" y1="127.301" x2="196.421" y2="127.301" gradientUnits="userSpaceOnUse">
<stop stop-color="#FE2F6D"/>
<stop offset="1" stop-color="#EDA858"/>
</linearGradient>
<linearGradient id="paint28_linear_33_1857" x1="197.944" y1="99.1656" x2="246.673" y2="99.1656" gradientUnits="userSpaceOnUse">
<stop stop-color="#FB4810"/>
<stop offset="1" stop-color="#CC0025"/>
</linearGradient>
<radialGradient id="paint29_radial_33_1857" cx="0" cy="0" r="1" gradientUnits="userSpaceOnUse" gradientTransform="translate(271.037 99.1657) scale(34.4549 34.4549)">
<stop stop-color="#BE904A"/>
<stop offset="1" stop-color="#E34750"/>
</radialGradient>
<radialGradient id="paint30_radial_33_1857" cx="0" cy="0" r="1" gradientUnits="userSpaceOnUse" gradientTransform="translate(246.672 113.172) scale(39.7866 39.7866)">
<stop stop-color="#D6AA69"/>
<stop offset="1" stop-color="#FF74AE"/>
</radialGradient>
<linearGradient id="paint31_linear_33_1857" x1="222.31" y1="113.232" x2="271.037" y2="113.232" gradientUnits="userSpaceOnUse">
<stop offset="0.00469163" stop-color="#FFBBA6"/>
<stop offset="1" stop-color="#45FF58"/>
</linearGradient>
<radialGradient id="paint32_radial_33_1857" cx="0" cy="0" r="1" gradientUnits="userSpaceOnUse" gradientTransform="translate(248.865 123.808) scale(55.2222 55.2222)">
<stop stop-color="#D6B169"/>
<stop offset="1" stop-color="#FF74AE"/>
</radialGradient>
<linearGradient id="paint33_linear_33_1857" x1="237.121" y1="135.903" x2="196.239" y2="112.159" gradientUnits="userSpaceOnUse">
<stop stop-color="#FF00A8"/>
<stop offset="1" stop-color="#E32900"/>
</linearGradient>
<linearGradient id="paint34_linear_33_1857" x1="246.672" y1="127.301" x2="295.4" y2="127.301" gradientUnits="userSpaceOnUse">
<stop stop-color="#FE2F6D"/>
<stop offset="1" stop-color="#EDA858"/>
</linearGradient>
<linearGradient id="paint35_linear_33_1857" x1="-0.0145507" y1="99.1656" x2="48.7141" y2="99.1656" gradientUnits="userSpaceOnUse">
<stop stop-color="#FB4810"/>
<stop offset="1" stop-color="#CC0025"/>
</linearGradient>
<radialGradient id="paint36_radial_33_1857" cx="0" cy="0" r="1" gradientUnits="userSpaceOnUse" gradientTransform="translate(73.078 99.1657) scale(34.4549 34.4549)">
<stop stop-color="#BE904A"/>
<stop offset="1" stop-color="#E34750"/>
</radialGradient>
<radialGradient id="paint37_radial_33_1857" cx="0" cy="0" r="1" gradientUnits="userSpaceOnUse" gradientTransform="translate(48.7131 113.172) scale(39.7866 39.7866)">
<stop stop-color="#D6AA69"/>
<stop offset="1" stop-color="#FF74AE"/>
</radialGradient>
<linearGradient id="paint38_linear_33_1857" x1="24.351" y1="113.232" x2="73.0777" y2="113.232" gradientUnits="userSpaceOnUse">
<stop offset="0.00469163" stop-color="#FFBBA6"/>
<stop offset="1" stop-color="#45FF58"/>
</linearGradient>
<radialGradient id="paint39_radial_33_1857" cx="0" cy="0" r="1" gradientUnits="userSpaceOnUse" gradientTransform="translate(50.9061 123.808) scale(55.2222 55.2222)">
<stop stop-color="#D6B169"/>
<stop offset="1" stop-color="#FF74AE"/>
</radialGradient>
<linearGradient id="paint40_linear_33_1857" x1="39.1617" y1="135.903" x2="-1.71964" y2="112.159" gradientUnits="userSpaceOnUse">
<stop stop-color="#FF00A8"/>
<stop offset="1" stop-color="#E32900"/>
</linearGradient>
<linearGradient id="paint41_linear_33_1857" x1="48.7127" y1="127.301" x2="97.4413" y2="127.301" gradientUnits="userSpaceOnUse">
<stop stop-color="#FE2F6D"/>
<stop offset="1" stop-color="#EDA858"/>
</linearGradient>
<linearGradient id="paint42_linear_33_1857" x1="49.4747" y1="127.66" x2="98.2034" y2="127.66" gradientUnits="userSpaceOnUse">
<stop stop-color="#FB4810"/>
<stop offset="1" stop-color="#CC0025"/>
</linearGradient>
<radialGradient id="paint43_radial_33_1857" cx="0" cy="0" r="1" gradientUnits="userSpaceOnUse" gradientTransform="translate(122.567 127.66) scale(34.4549 34.4549)">
<stop stop-color="#BE904A"/>
<stop offset="1" stop-color="#E34750"/>
</radialGradient>
<radialGradient id="paint44_radial_33_1857" cx="0" cy="0" r="1" gradientUnits="userSpaceOnUse" gradientTransform="translate(98.2023 141.666) scale(39.7866 39.7866)">
<stop stop-color="#D6AA69"/>
<stop offset="1" stop-color="#FF74AE"/>
</radialGradient>
<linearGradient id="paint45_linear_33_1857" x1="73.8403" y1="141.726" x2="122.567" y2="141.726" gradientUnits="userSpaceOnUse">
<stop offset="0.00469163" stop-color="#FFBBA6"/>
<stop offset="1" stop-color="#45FF58"/>
</linearGradient>
<radialGradient id="paint46_radial_33_1857" cx="0" cy="0" r="1" gradientUnits="userSpaceOnUse" gradientTransform="translate(100.395 152.302) scale(55.2222 55.2222)">
<stop stop-color="#D6B169"/>
<stop offset="1" stop-color="#FF74AE"/>
</radialGradient>
<linearGradient id="paint47_linear_33_1857" x1="88.651" y1="164.397" x2="47.7696" y2="140.653" gradientUnits="userSpaceOnUse">
<stop stop-color="#FF00A8"/>
<stop offset="1" stop-color="#E32900"/>
</linearGradient>
<linearGradient id="paint48_linear_33_1857" x1="98.2019" y1="155.795" x2="146.931" y2="155.795" gradientUnits="userSpaceOnUse">
<stop stop-color="#FE2F6D"/>
<stop offset="1" stop-color="#EDA858"/>
</linearGradient>
<linearGradient id="paint49_linear_33_1857" x1="148.454" y1="127.66" x2="197.183" y2="127.66" gradientUnits="userSpaceOnUse">
<stop stop-color="#FB4810"/>
<stop offset="1" stop-color="#CC0025"/>
</linearGradient>
<radialGradient id="paint50_radial_33_1857" cx="0" cy="0" r="1" gradientUnits="userSpaceOnUse" gradientTransform="translate(221.547 127.66) scale(34.4549 34.4549)">
<stop stop-color="#BE904A"/>
<stop offset="1" stop-color="#E34750"/>
</radialGradient>
<radialGradient id="paint51_radial_33_1857" cx="0" cy="0" r="1" gradientUnits="userSpaceOnUse" gradientTransform="translate(197.182 141.666) scale(39.7866 39.7866)">
<stop stop-color="#D6AA69"/>
<stop offset="1" stop-color="#FF74AE"/>
</radialGradient>
<linearGradient id="paint52_linear_33_1857" x1="172.82" y1="141.726" x2="221.546" y2="141.726" gradientUnits="userSpaceOnUse">
<stop offset="0.00469163" stop-color="#FFBBA6"/>
<stop offset="1" stop-color="#45FF58"/>
</linearGradient>
<radialGradient id="paint53_radial_33_1857" cx="0" cy="0" r="1" gradientUnits="userSpaceOnUse" gradientTransform="translate(199.375 152.302) scale(55.2222 55.2222)">
<stop stop-color="#D6B169"/>
<stop offset="1" stop-color="#FF74AE"/>
</radialGradient>
<linearGradient id="paint54_linear_33_1857" x1="187.63" y1="164.397" x2="146.749" y2="140.653" gradientUnits="userSpaceOnUse">
<stop stop-color="#FF00A8"/>
<stop offset="1" stop-color="#E32900"/>
</linearGradient>
<linearGradient id="paint55_linear_33_1857" x1="197.181" y1="155.795" x2="245.91" y2="155.795" gradientUnits="userSpaceOnUse">
<stop stop-color="#FE2F6D"/>
<stop offset="1" stop-color="#EDA858"/>
</linearGradient>
<linearGradient id="paint56_linear_33_1857" x1="98.9649" y1="156.154" x2="147.694" y2="156.154" gradientUnits="userSpaceOnUse">
<stop stop-color="#FB4810"/>
<stop offset="1" stop-color="#CC0025"/>
</linearGradient>
<radialGradient id="paint57_radial_33_1857" cx="0" cy="0" r="1" gradientUnits="userSpaceOnUse" gradientTransform="translate(172.057 156.154) scale(34.4549 34.4549)">
<stop stop-color="#BE904A"/>
<stop offset="1" stop-color="#E34750"/>
</radialGradient>
<radialGradient id="paint58_radial_33_1857" cx="0" cy="0" r="1" gradientUnits="userSpaceOnUse" gradientTransform="translate(147.693 170.16) scale(39.7866 39.7866)">
<stop stop-color="#D6AA69"/>
<stop offset="1" stop-color="#FF74AE"/>
</radialGradient>
<linearGradient id="paint59_linear_33_1857" x1="123.33" y1="170.22" x2="172.057" y2="170.22" gradientUnits="userSpaceOnUse">
<stop offset="0.00469163" stop-color="#FFBBA6"/>
<stop offset="1" stop-color="#45FF58"/>
</linearGradient>
<radialGradient id="paint60_radial_33_1857" cx="0" cy="0" r="1" gradientUnits="userSpaceOnUse" gradientTransform="translate(149.886 180.797) scale(55.2222 55.2222)">
<stop stop-color="#D6B169"/>
<stop offset="1" stop-color="#FF74AE"/>
</radialGradient>
<linearGradient id="paint61_linear_33_1857" x1="138.141" y1="192.891" x2="97.2599" y2="169.147" gradientUnits="userSpaceOnUse">
<stop stop-color="#FF00A8"/>
<stop offset="1" stop-color="#E32900"/>
</linearGradient>
<linearGradient id="paint62_linear_33_1857" x1="147.692" y1="184.289" x2="196.421" y2="184.289" gradientUnits="userSpaceOnUse">
<stop stop-color="#FE2F6D"/>
<stop offset="1" stop-color="#EDA858"/>
</linearGradient>
</defs>
</svg>
