<svg width="300" height="300">
<path d="M0 0 C1.77792397 1.30052572 1.77792397 1.30052572 4.51538086 2.66918945 C6.75060444 2.22625145 6.75060444 2.22625145 8.51538086 0.66918945 C9.14057617 0.20641602 9.76577148 -0.25635742 10.40991211 -0.7331543 C11.35930664 -1.49305664 11.35930664 -1.49305664 12.32788086 -2.26831055 C17.96616055 -6.52302714 23.10962961 -8.96599427 30.24975586 -8.67456055 C37.78080009 -7.53191935 42.04518885 -3.1218218 46.51538086 2.66918945 C48.39392118 5.38764926 50.1458129 8.17592717 51.89038086 10.98168945 C56.83027611 18.75534894 62.20132162 25.85495901 68.24194336 32.80981445 C84.1625003 51.21779016 84.1625003 51.21779016 84.05053711 63.30981445 C80.32428662 86.70087589 56.15708329 111.7049339 38.10522461 125.79418945 C31.23848285 130.7655862 26.05414169 133.26258179 17.51538086 133.66918945 C17.32975586 134.47356445 17.14413086 135.27793945 16.95288086 136.10668945 C14.96527024 141.03250708 11.94152695 144.65086997 8.51538086 148.66918945 C8.01264648 149.28020508 7.50991211 149.8912207 6.99194336 150.52075195 C-3.08612788 161.72429308 -21.0371774 168.93842239 -35.85083008 169.80810547 C-58.84749316 170.65805479 -79.92010058 166.59386707 -97.48461914 150.66918945 C-98.10594727 150.11618164 -98.72727539 149.56317383 -99.36743164 148.9934082 C-103.83564423 144.78632492 -107.49851778 140.03979666 -110.48461914 134.66918945 C-110.48461914 134.00918945 -110.48461914 133.34918945 -110.48461914 132.66918945 C-111.50168945 132.84708008 -111.50168945 132.84708008 -112.53930664 133.02856445 C-121.93821676 134.33035256 -128.30031818 132.24897344 -135.85961914 126.60668945 C-137.41794776 125.31401615 -138.95826968 123.99947126 -140.48461914 122.66918945 C-141.41145508 121.87512695 -142.33829102 121.08106445 -143.29321289 120.26293945 C-159.22827791 106.32434263 -179.08466673 85.06198756 -183.04711914 63.6262207 C-183.77762863 51.8619742 -177.23633465 42.96440325 -169.90649414 34.38012695 C-167.45809352 31.63949788 -164.97664247 28.93267126 -162.48461914 26.23168945 C-154.84587816 17.90711724 -148.43000237 8.868242 -142.50415039 -0.73706055 C-139.49937821 -4.59618768 -136.1033094 -6.79124713 -131.48461914 -8.33081055 C-122.77920638 -9.29807863 -115.69397077 -6.38952023 -108.78686523 -1.00805664 C-107.33601373 0.19779619 -105.90817083 1.43122672 -104.48461914 2.66918945 C-103.64801758 2.10071289 -102.81141602 1.53223633 -101.94946289 0.9465332 C-69.01344324 -21.06348022 -33.08838647 -24.19340855 0 0 Z " fill="#060606" transform="translate(199.484619140625,78.330810546875)"/>
<path d="M0 0 C20.50708796 -1.02100968 40.12808733 9.80473454 55.625 22.31640625 C56.47320312 22.90679687 57.32140625 23.4971875 58.1953125 24.10546875 C67.58021962 31.13640577 69.18770474 42.71323873 70.9375 53.69140625 C71.47497284 57.66574667 71.65505055 61.52998414 71.64135742 65.53369141 C71.63899582 66.43044586 71.63663422 67.32720032 71.63420105 68.25112915 C71.62964653 69.27344131 71.62964653 69.27344131 71.625 70.31640625 C70.78054825 70.32187469 70.78054825 70.32187469 69.91903687 70.32745361 C64.04603166 70.36934708 58.17380298 70.43874024 52.30126953 70.52392578 C50.11124447 70.55210685 47.92111823 70.57333559 45.73095703 70.58740234 C42.57792473 70.60887102 39.42610515 70.655543 36.2734375 70.70703125 C35.29821136 70.70825989 34.32298523 70.70948853 33.31820679 70.71075439 C26.26805567 70.86178003 22.94257141 72.22835236 17.76171875 77.05078125 C16.04597754 80.47047163 16.31007675 83.83918209 16.4375 87.56640625 C16.499375 90.12390625 16.56125 92.68140625 16.625 95.31640625 C9.035 95.31640625 1.445 95.31640625 -6.375 95.31640625 C-6.0625 87.12890625 -6.0625 87.12890625 -5.92456055 84.57739258 C-5.84802803 80.42340492 -6.00955371 78.78752376 -8.64453125 75.390625 C-12.63383655 72.36012269 -15.29304085 71.07540562 -20.32714844 70.99755859 C-21.30786316 70.9776889 -22.28857788 70.95781921 -23.29901123 70.93734741 C-24.35018127 70.9257962 -25.40135132 70.914245 -26.484375 70.90234375 C-27.56632141 70.8829776 -28.64826782 70.86361145 -29.76300049 70.84365845 C-33.21692026 70.78390388 -36.67087344 70.73749328 -40.125 70.69140625 C-42.46746241 70.65322272 -44.80991084 70.61417077 -47.15234375 70.57421875 C-52.89310499 70.47820569 -58.63395053 70.39314598 -64.375 70.31640625 C-64.62645923 52.0144317 -64.62645923 52.0144317 -63.0625 43.06640625 C-62.88557617 41.88498047 -62.88557617 41.88498047 -62.70507812 40.6796875 C-61.41816695 32.85262773 -58.38066946 28.87118992 -52.0625 24.06640625 C-51.44294434 23.59041992 -50.82338867 23.11443359 -50.18505859 22.62402344 C-34.95117656 11.07631715 -19.37215717 1.81613973 0 0 Z " fill="#FDFDFD" transform="translate(146.375,71.68359375)"/>
<path d="M0 0 C1.92005859 -0.00773438 1.92005859 -0.00773438 3.87890625 -0.015625 C7.20664848 0.23276849 9.45867957 0.80918858 12.4375 2.25 C12.60185547 3.76980469 12.60185547 3.76980469 12.76953125 5.3203125 C12.92909893 6.67194461 13.08928833 8.02350343 13.25 9.375 C13.32025391 10.04015625 13.39050781 10.7053125 13.46289062 11.390625 C14.17837605 17.22898609 15.58609763 21.57922225 20 25.5625 C24.08348647 28.3895291 27.22293425 28.45594356 32.0703125 28.56640625 C32.82214813 28.58718735 33.57398376 28.60796844 34.34860229 28.62937927 C36.75314085 28.69482705 39.15778967 28.75373738 41.5625 28.8125 C43.19141771 28.85568977 44.82032422 28.89930421 46.44921875 28.94335938 C50.44519915 29.05050351 54.44129059 29.15178433 58.4375 29.25 C54.24341436 42.95445821 46.88652494 53.64754785 34.328125 60.83203125 C17.29055844 69.18964836 -1.64065742 71.13993915 -19.88671875 65.5625 C-35.27652759 60.06730789 -48.15682126 50.0391848 -55.5625 35.25 C-56.24462148 33.25521812 -56.91320403 31.25570666 -57.5625 29.25 C-56.66007568 29.2406543 -55.75765137 29.23130859 -54.82788086 29.22167969 C-51.45212422 29.1774416 -48.07759714 29.11573136 -44.70239258 29.04248047 C-43.2467804 29.01440414 -41.79101954 28.99312368 -40.33520508 28.97900391 C-29.19523425 29.1234204 -29.19523425 29.1234204 -19.5625 24.25 C-14.85056538 18.22713344 -14.42350134 9.57984039 -13.5625 2.25 C-8.90492588 0.43592167 -4.98729225 -0.02013034 0 0 Z " fill="#FAFAFA" transform="translate(152.5625,168.75)"/>
<path d="M0 0 C3.68923331 2.27336539 6.93957692 4.93957692 10 8 C10.44871335 11.96363455 10.65453962 14.1423274 8.1875 17.375 C7.465625 18.24125 6.74375 19.1075 6 20 C2.00859812 29.1628704 1.79370452 38.59807996 1.4375 48.4375 C1.37272461 50.1071582 1.37272461 50.1071582 1.30664062 51.81054688 C1.20120112 54.54025844 1.09907971 57.27005143 1 60 C0.37424072 60.26772217 -0.25151855 60.53544434 -0.89624023 60.8112793 C-2.12129272 61.34362183 -2.12129272 61.34362183 -3.37109375 61.88671875 C-4.18247803 62.23694092 -4.9938623 62.58716309 -5.82983398 62.94799805 C-8.53993151 64.26173528 -9.80348803 65.20813873 -11 68 C-11.47289578 74.15566035 -10.02265187 79.32159542 -8.25 85.1875 C-7.97559082 86.11498047 -7.70118164 87.04246094 -7.41845703 87.99804688 C-6.62294966 90.66871209 -5.81282957 93.33456594 -5 96 C-4.79793945 96.6801416 -4.59587891 97.3602832 -4.38769531 98.06103516 C-2.1556755 106.40447295 -2.1556755 106.40447295 3 113 C5.96745598 113.96172317 8.9150389 114.55834959 12 115 C12 115.66 12 116.32 12 117 C8.05416676 118.31527775 4.078751 118.82562953 0 118 C-12.7028623 111.56302769 -23.45076357 99.06613163 -32 88 C-32.42555176 87.44940918 -32.85110352 86.89881836 -33.28955078 86.33154297 C-49.69650343 64.8781816 -49.69650343 64.8781816 -49.375 55.25 C-46.77342388 43.90712812 -35.11139755 33.99920935 -27.64208984 25.44482422 C-21.92571371 18.86936461 -16.9063603 12.14852371 -12.22216797 4.81079102 C-8.46981914 -1.03004225 -6.873934 -1.66304855 0 0 Z " fill="#FBFBFB" transform="translate(77,82)"/>
<path d="M0 0 C5.24972934 4.92237901 8.71269855 11.65480096 12.52734375 17.70166016 C16.62670316 24.12502509 21.4245263 29.86161647 26.40185547 35.62255859 C27.38708303 36.76364136 28.37046277 37.906322 29.35205078 39.05053711 C30.29371704 40.14631425 31.24092283 41.23736691 32.19482422 42.32250977 C35.69805365 46.38679825 39.4677033 50.84967256 40.3828125 56.265625 C38.93866516 67.38118332 31.64679802 76.3478113 25 85 C24.37222656 85.82242188 23.74445313 86.64484375 23.09765625 87.4921875 C14.08792322 99.02611976 4.1346728 111.04511743 -9 118 C-12.8125 118.1875 -12.8125 118.1875 -16 118 C-16 117.01 -16 116.02 -16 115 C-14.4221875 114.690625 -14.4221875 114.690625 -12.8125 114.375 C-8.53593515 113.09030613 -6.11288559 110.90698492 -4 107 C-2.36473945 102.74581644 -1.19573462 98.3947709 0 94 C0.45012862 92.4769758 0.90340235 90.95487855 1.359375 89.43359375 C1.82373066 87.85180123 2.28727875 86.2697714 2.75 84.6875 C2.97300781 83.94725586 3.19601563 83.20701172 3.42578125 82.44433594 C5.07256817 76.65727814 6.37439751 70.81126763 3.625 65.1875 C0.89608628 62.91340523 -0.80033418 62.31153746 -4.1640625 61.36328125 C-5.52072021 60.97523315 -5.52072021 60.97523315 -6.90478516 60.5793457 C-7.9419165 60.29256958 -7.9419165 60.29256958 -9 60 C-9.10022461 59.21463867 -9.20044922 58.42927734 -9.30371094 57.62011719 C-9.77349172 53.99502873 -10.26163739 50.37263009 -10.75 46.75 C-10.90726563 45.51507813 -11.06453125 44.28015625 -11.2265625 43.0078125 C-12.41301321 34.33759575 -14.02204578 25.74951557 -18.08496094 17.90527344 C-19.67713323 14.59008866 -19.97513897 11.49099752 -19 8 C-13.97410055 1.89031655 -7.94391526 -2.55821 0 0 Z " fill="#FBFBFB" transform="translate(232,82)"/>
<path d="M0 0 C6.72594266 -0.1015993 13.45168668 -0.17154911 20.17822266 -0.21972656 C22.46540726 -0.23981517 24.75254068 -0.26709128 27.03955078 -0.30175781 C30.33118334 -0.35039558 33.62213557 -0.37299679 36.9140625 -0.390625 C37.93303619 -0.41127014 38.95200989 -0.43191528 40.00186157 -0.45318604 C45.98263884 -0.4550672 49.46132121 -0.02336619 54 4 C56.48124842 8.96249684 54.69705048 14.90193742 53.5625 20.0546875 C52.89214939 23.56471778 52.52035854 27.07383308 52.125 30.625 C51.34901809 36.62067269 50.35945265 40.96082103 47 46 C43.39116756 48.60637899 39.44017306 48.25624742 35.171875 48.1953125 C34.42286926 48.1924826 33.67386353 48.18965271 32.90216064 48.18673706 C30.51794224 48.1755726 28.13410421 48.15047531 25.75 48.125 C24.13021377 48.11496535 22.51042164 48.10584035 20.890625 48.09765625 C16.92693754 48.07564555 12.96353319 48.04114175 9 48 C3.17534458 31.883235 -0.26661192 17.22938367 0 0 Z " fill="#FCFCFC" transform="translate(83,146)"/>
<path d="M0 0 C1.03613937 0.00707474 2.07227875 0.01414948 3.13981628 0.0214386 C6.44160872 0.04937518 9.74169091 0.11211495 13.04296875 0.17578125 C15.28448068 0.20086495 17.52601925 0.22367799 19.76757812 0.24414062 C25.25578955 0.29919919 30.74300696 0.38281844 36.23046875 0.48828125 C36.847757 17.26467797 35.85221539 32.30725127 31.23046875 48.48828125 C26.21346971 48.61231325 21.19737193 48.70282142 16.17919922 48.76293945 C14.47396286 48.7880117 12.76883321 48.82207889 11.06396484 48.86547852 C8.60617701 48.92645691 6.14981514 48.95456237 3.69140625 48.9765625 C2.55667374 49.01527214 2.55667374 49.01527214 1.39901733 49.05476379 C-2.61546306 49.05686861 -5.04748834 48.66606211 -8.22509766 46.10791016 C-16.53469117 37.55274431 -15.88779817 19.59196941 -16.328125 8.328125 C-14.58378174 -0.53996974 -7.370494 -0.18977699 0 0 Z " fill="#FCFCFC" transform="translate(181.76953125,145.51171875)"/>
<path d="M0 0 C0.78503906 0.00773438 1.57007813 0.01546875 2.37890625 0.0234375 C3.16394531 0.01570312 3.94898438 0.00796875 4.7578125 0 C10.62559838 0.02012963 10.62559838 0.02012963 12.87890625 2.2734375 C13.58527357 7.37406664 13.66720316 11.86576444 11.12890625 16.3984375 C8.93559914 18.22619342 7.68863206 18.97239545 4.87890625 19.2734375 C6.85890625 22.2434375 6.85890625 22.2434375 8.87890625 25.2734375 C15.16502457 25.04893327 18.37705333 23.65744311 23.21484375 19.6484375 C24.87890625 18.2734375 24.87890625 18.2734375 26.87890625 17.2734375 C24.24207216 24.35914807 20.32431703 31.08392049 13.87890625 35.2734375 C13.01265625 35.8509375 12.14640625 36.4284375 11.25390625 37.0234375 C5.4696525 39.1657537 -0.03456158 39.48236617 -5.84375 37.20703125 C-11.76572456 33.92895484 -15.553648 29.96492168 -19.12109375 24.2734375 C-19.76046875 23.3246875 -20.39984375 22.3759375 -21.05859375 21.3984375 C-21.40921875 20.6971875 -21.75984375 19.9959375 -22.12109375 19.2734375 C-21.79109375 18.6134375 -21.46109375 17.9534375 -21.12109375 17.2734375 C-20.6621875 17.68335938 -20.20328125 18.09328125 -19.73046875 18.515625 C-19.116875 19.05445313 -18.50328125 19.59328125 -17.87109375 20.1484375 C-17.2678125 20.68210938 -16.66453125 21.21578125 -16.04296875 21.765625 C-13.11391962 24.06361883 -10.81463574 25.17229596 -7.12109375 25.7109375 C-3.90041363 25.55683658 -3.90041363 25.55683658 -1.74609375 22.7734375 C-1.20984375 21.9484375 -0.67359375 21.1234375 -0.12109375 20.2734375 C-1.06984375 19.6959375 -2.01859375 19.1184375 -2.99609375 18.5234375 C-6.06089593 16.31677993 -6.85467793 15.63848525 -8.12109375 12.2734375 C-8.38671875 9.765625 -8.38671875 9.765625 -8.37109375 7.1484375 C-8.37625 6.27960938 -8.38140625 5.41078125 -8.38671875 4.515625 C-7.78524887 -0.56148836 -4.30685796 0.01477481 0 0 Z " fill="#090909" transform="translate(150.12109375,189.7265625)"/>
<path d="M0 0 C3.36298892 2.77812128 5.79634542 4.95677703 6.23828125 9.390625 C6.39598481 15.46636205 6.2497954 19.2645137 2 24 C-1 26 -1 26 -4.4375 25.9375 C-8.64636465 24.82990404 -9.71022453 23.61079978 -12 20 C-13.97105392 16.05789216 -13.45383884 11.29634099 -13 7 C-10.39460635 0.60382033 -6.66130938 -0.67742129 0 0 Z " fill="#080808" transform="translate(196,162)"/>
<path d="M0 0 C3.78416035 3.6871306 5.15573611 6.56548585 5.25 11.75 C5.18674767 17.22923296 4.07833478 20.92166522 0.125 24.875 C-2.60339698 26.31944546 -3.95369434 26.5944011 -7 26 C-10.5712894 23.09313654 -12.85383727 20.48045429 -14 16 C-14.62377571 9.55431766 -13.68804253 6.31512012 -10 1 C-6.79512031 -0.60243984 -3.46690163 -0.63159396 0 0 Z " fill="#060606" transform="translate(117,162)"/>
<path d="M0 0 C7.6796875 0.8046875 7.6796875 0.8046875 10.5625 2.5625 C12.95898753 6.62610929 11.46385698 11.05473721 10.41381836 15.45825195 C9.70774798 18.10872764 8.95638649 20.74208845 8.1875 23.375 C7.93935547 24.25671875 7.69121094 25.1384375 7.43554688 26.046875 C2.38150377 43.58813403 2.38150377 43.58813403 -2 47 C-2.99 47 -3.98 47 -5 47 C-4.45543722 43.1252264 -3.88676428 39.25635564 -3.28125 35.390625 C-1.46916157 23.58737643 -0.39551376 11.93360487 0 0 Z " fill="#F6F6F6" transform="translate(223,146)"/>
<path d="M0 0 C0.08636719 1.04414063 0.17273438 2.08828125 0.26171875 3.1640625 C1.09393525 12.19881291 2.47533104 20.96427532 4.5 29.8125 C4.71358154 30.74852051 4.92716309 31.68454102 5.1472168 32.64892578 C6.1603474 36.93629789 7.32135843 40.9199684 9 45 C9 45.99 9 46.98 9 48 C5.74616778 47.72884731 4.28126007 47.26471536 1.875 45 C0.32430101 42.51888162 -0.51100907 40.76207511 -1.3828125 38.04296875 C-1.63981934 37.24681152 -1.89682617 36.4506543 -2.16162109 35.63037109 C-2.43828613 34.76234863 -2.71495117 33.89432617 -3 33 C-3.30115723 32.07912598 -3.60231445 31.15825195 -3.91259766 30.20947266 C-4.87616467 27.24919998 -5.81474812 24.28182849 -6.75 21.3125 C-7.07871094 20.30638672 -7.40742187 19.30027344 -7.74609375 18.26367188 C-10.68579289 8.85539426 -10.68579289 8.85539426 -9 4 C-5.7669446 0.67956472 -4.72747104 0 0 0 Z " fill="#F5F5F5" transform="translate(78,146)"/>
<path d="M0 0 C3.75859902 2.66451178 6.47847554 5.50061718 8 9.875 C8 10.57625 8 11.2775 8 12 C6.29207001 13.70792999 4.14456519 13.25270346 1.8125 13.3125 C-3.23918007 13.25994676 -6.2561681 12.64531001 -10 9 C-11.125 6.5 -11.125 6.5 -11 4 C-8.09537 -0.47797125 -5.09355511 -0.94964587 0 0 Z " fill="#151515" transform="translate(192,119)"/>
<path d="M0 0 C2.4375 1.6875 2.4375 1.6875 4 4 C4.125 6.5 4.125 6.5 3 9 C-0.6039787 12.41915928 -3.41841812 13.25656273 -8.25 13.3125 C-12.62700965 13.18649518 -12.62700965 13.18649518 -15 12 C-14.40503246 8.67258892 -13.29522827 6.82909592 -11.0625 4.3125 C-10.53785156 3.71050781 -10.01320313 3.10851562 -9.47265625 2.48828125 C-6.56754502 -0.44765344 -4.00083946 -0.40008395 0 0 Z " fill="#141414" transform="translate(120,119)"/>
<path d="M0 0 C0.845625 0.804375 1.69125 1.60875 2.5625 2.4375 C5.8515158 5.21628662 8.68629604 5.74117776 13 6 C9.15123734 10.12367428 6.92646531 11.80735347 1.25 12.375 C-3.38459112 12.27065649 -7.19632487 10.59901991 -11 8 C-11.33 7.34 -11.66 6.68 -12 6 C-11.07767578 5.85304687 -11.07767578 5.85304687 -10.13671875 5.703125 C-5.00590695 4.86708954 -5.00590695 4.86708954 -0.9375 1.875 C-0.628125 1.25625 -0.31875 0.6375 0 0 Z " fill="#EFEFEF" transform="translate(152,213)"/>
<path d="M0 0 C1.875 0.0625 1.875 0.0625 4 1 C6.25 3.5625 6.25 3.5625 8 6 C5.36 6 2.72 6 0 6 C-0.66 4.68 -1.32 3.36 -2 2 C-1.34 1.34 -0.68 0.68 0 0 Z " fill="#EDEDED" transform="translate(187,122)"/>
<path d="M0 0 C1.32 0.33 2.64 0.66 4 1 C4 2.32 4 3.64 4 5 C1.04335481 6.4783226 -1.74229737 6.06032783 -5 6 C-3.35 4.02 -1.7 2.04 0 0 Z " fill="#F0F0F0" transform="translate(115,122)"/>
<path d="M0 0 C0.33 0.99 0.66 1.98 1 3 C0.34 3 -0.32 3 -1 3 C-1 3.66 -1 4.32 -1 5 C-3.29239061 4.91321237 -5.5839807 4.80504727 -7.875 4.6875 C-9.15117187 4.62949219 -10.42734375 4.57148438 -11.7421875 4.51171875 C-13.35480469 4.25841797 -13.35480469 4.25841797 -15 4 C-15.66 3.01 -16.32 2.02 -17 1 C-5.47835991 0.81548975 -5.47835991 0.81548975 0 2 C0 1.34 0 0.68 0 0 Z " fill="#2A2A2A" transform="translate(163,165)"/>
</svg>
