<?xml version="1.0" ?><!-- Uploaded to: SVG Repo, www.svgrepo.com, Generator: SVG Repo Mixer Tools -->
<svg width="800px" height="800px" viewBox="0 0 32 32" id="OBJECT" xmlns="http://www.w3.org/2000/svg"><defs><style>.cls-1{fill:#b2b2b2;}</style></defs><title/><rect height="26" rx="1" ry="1" width="18" x="5" y="5"/><path class="cls-1" d="M26.71,7.29l-6-6A1,1,0,0,0,20,1H10A1,1,0,0,0,9,2V26a1,1,0,0,0,1,1H26a1,1,0,0,0,1-1V8A1,1,0,0,0,26.71,7.29Z"/><path d="M20.71,1.29A1,1,0,0,0,20,1V7a1,1,0,0,0,1,1h6a1,1,0,0,0-.29-.71Z"/><path d="M19,13.5H14a1,1,0,0,1,0-2h5a1,1,0,0,1,0,2Z"/><path d="M22,17.5H14a1,1,0,0,1,0-2h8a1,1,0,0,1,0,2Z"/><path d="M22,21.5H14a1,1,0,0,1,0-2h8a1,1,0,0,1,0,2Z"/></svg>