<svg width="246" height="353" viewBox="0 0 246 353" fill="none" xmlns="http://www.w3.org/2000/svg">
  <path d="M88.9843 128.773L56.4921 147.546L24 128.773L56.4921 110L88.9843 128.773Z" fill="white" stroke="black" stroke-width="0.5"/>
  <path d="M24 128.773V166.32L56.4921 185.048V147.547L24 128.773Z" fill="white" stroke="black" stroke-width="0.5"/>
  <path d="M88.9843 128.773V166.32L56.4922 185.048V147.547L88.9843 128.773Z" fill="white" stroke="black" stroke-width="0.5"/>
  <path d="M154.984 52.7732L122.492 71.5464L90 52.7732L122.492 34L154.984 52.7732Z" fill="white" stroke="black" stroke-width="0.5"/>
  <path d="M90 52.7733V90.3198L122.492 109.048V71.5465L90 52.7733Z" fill="white" stroke="black" stroke-width="0.5"/>
  <path d="M154.984 52.7733V90.3198L122.492 109.048V71.5465L154.984 52.7733Z" fill="white" stroke="black" stroke-width="0.5"/>
  <path d="M121.984 71.7732L89.4921 90.5464L57 71.7732L89.4921 53L121.984 71.7732Z" fill="white" stroke="black" stroke-width="0.5"/>
  <path d="M57 71.7733V109.32L89.4921 128.048V90.5465L57 71.7733Z" fill="white" stroke="black" stroke-width="0.5"/>
  <path d="M121.984 71.7733V109.32L89.4922 128.048V90.5465L121.984 71.7733Z" fill="white" stroke="black" stroke-width="0.5"/>
  <path d="M88.9843 90.7732L56.4921 109.546L24 90.7732L56.4921 72L88.9843 90.7732Z" fill="white" stroke="black" stroke-width="0.5"/>
  <path d="M24 90.7733V128.32L56.4921 147.048V109.547L24 90.7733Z" fill="white" stroke="black" stroke-width="0.5"/>
  <path d="M88.9843 90.7733V128.32L56.4922 147.048V109.547L88.9843 90.7733Z" fill="white" stroke="black" stroke-width="0.5"/>
</svg>
