<svg width="246" height="353" viewBox="0 0 246 353" fill="none" xmlns="http://www.w3.org/2000/svg">
<path d="M121.984 185.773L89.4921 204.501L57 185.773L89.4921 167L121.984 185.773Z" fill="white" stroke="black" stroke-width="0.5"/>
<path d="M57 185.773V223.275L89.4921 242.048V204.501L57 185.773Z" fill="white" stroke="black" stroke-width="0.5"/>
<path d="M121.984 185.773V223.275L89.4922 242.048V204.501L121.984 185.773Z" fill="white" stroke="black" stroke-width="0.5"/>
<path d="M187.984 147.773L155.492 166.546L123 147.773L155.492 129L187.984 147.773Z" fill="white" stroke="black" stroke-width="0.5"/>
<path d="M123 147.773V185.32L155.492 204.048V166.547L123 147.773Z" fill="white" stroke="black" stroke-width="0.5"/>
<path d="M187.984 147.773V185.32L155.492 204.048V166.547L187.984 147.773Z" fill="white" stroke="black" stroke-width="0.5"/>
<path d="M121.984 147.773L89.4921 166.546L57 147.773L89.4921 129L121.984 147.773Z" fill="white" stroke="black" stroke-width="0.5"/>
<path d="M57 147.773V185.32L89.4921 204.048V166.547L57 147.773Z" fill="white" stroke="black" stroke-width="0.5"/>
<path d="M121.984 147.773V185.32L89.4922 204.048V166.547L121.984 147.773Z" fill="white" stroke="black" stroke-width="0.5"/>
<path d="M154.984 90.7732L122.492 109.546L90 90.7732L122.492 72L154.984 90.7732Z" fill="white" stroke="black" stroke-width="0.5"/>
<path d="M90 90.7733V128.32L122.492 147.048V109.547L90 90.7733Z" fill="white" stroke="black" stroke-width="0.5"/>
<path d="M154.984 90.7733V128.32L122.492 147.048V109.547L154.984 90.7733Z" fill="white" stroke="black" stroke-width="0.5"/>
<path d="M121.984 109.773L89.4921 128.546L57 109.773L89.4921 91L121.984 109.773Z" fill="white" stroke="black" stroke-width="0.5"/>
<path d="M57 109.773V147.32L89.4921 166.048V128.547L57 109.773Z" fill="white" stroke="black" stroke-width="0.5"/>
<path d="M121.984 109.773V147.32L89.4922 166.048V128.547L121.984 109.773Z" fill="white" stroke="black" stroke-width="0.5"/>
<path d="M187.984 109.773L155.492 128.546L123 109.773L155.492 91L187.984 109.773Z" fill="white" stroke="black" stroke-width="0.5"/>
<path d="M123 109.773V147.32L155.492 166.048V128.547L123 109.773Z" fill="white" stroke="black" stroke-width="0.5"/>
<path d="M187.984 109.773V147.32L155.492 166.048V128.547L187.984 109.773Z" fill="white" stroke="black" stroke-width="0.5"/>
</svg>
